
        <svg xmlns="http://www.w3.org/2000/svg" xmlns:xlink="http://www.w3.org/1999/xlink" version="1.1" width="3352.9411764705883" 
        height="3180.9103355219227" viewBox="0 0 3352.9411764705883 3180.9103355219227">
			<rect fill="#32445b" width="3352.9411764705883" height="3180.9103355219227"/>
			<g transform="scale(17.647058823529413) translate(10, 10)">
				<defs id="SvgjsDefs1986"><linearGradient id="SvgjsLinearGradient1993"><stop id="SvgjsStop1994" stop-color="#b88746" offset="0"></stop><stop id="SvgjsStop1995" stop-color="#fdf5a6" offset="1"></stop></linearGradient></defs><g id="SvgjsG1987" featureKey="aMgJeN-0" transform="matrix(1.0337091943666192,0,0,1.0337091943666192,33.31505401811152,-14.407838467165229)" fill="url(#SvgjsLinearGradient1993)"><polygon xmlns="http://www.w3.org/2000/svg" points="42.021,89.823 98.369,53.589 82.566,61.219 82.574,61.292 82.527,61.238 82.264,61.365 82.281,61.389 "></polygon><polygon xmlns="http://www.w3.org/2000/svg" points="79.395,61.174 38.895,57.391 36.811,91.25 "></polygon><polygon xmlns="http://www.w3.org/2000/svg" points="3.71,38.712 34.918,92.062 37.066,57.146 "></polygon><polygon xmlns="http://www.w3.org/2000/svg" points="95.209,45.172 80.775,27.29 79.232,32.516 95.928,46.175 "></polygon><polygon xmlns="http://www.w3.org/2000/svg" points="98.135,50.979 79.758,35.645 82.281,58.632 "></polygon><polygon xmlns="http://www.w3.org/2000/svg" points="61.512,33.498 79.758,54.504 77.424,33.356 "></polygon><polygon xmlns="http://www.w3.org/2000/svg" points="59.756,34.836 39.467,54.979 80.432,58.808 "></polygon><polygon xmlns="http://www.w3.org/2000/svg" points="58.445,33.191 36.674,27.365 38.974,52.971 "></polygon><polygon xmlns="http://www.w3.org/2000/svg" points="37.133,54.393 34.822,28.537 6.776,37.639 "></polygon><polygon xmlns="http://www.w3.org/2000/svg" points="8.923,35.031 34.527,26.292 25.659,19.867 "></polygon><polygon xmlns="http://www.w3.org/2000/svg" points="1.63,26.184 3.25,37.485 20.957,21.022 "></polygon><polygon xmlns="http://www.w3.org/2000/svg" points="28.355,14.604 7.837,21.987 26.101,17.109 "></polygon><polygon xmlns="http://www.w3.org/2000/svg" points="36.751,24.86 60.131,31.196 77.148,30.907 78.672,25.749 67.951,19.853 48.173,14.486 32.256,13.938 28.073,18.586   "></polygon></g><g id="SvgjsG1988" featureKey="8L6ael-0" transform="matrix(2.862969173624323,0,0,2.862969173624323,-2.863537084379589,84.49191419395282)" fill="#ffffff"><path d="M3.3604 8.738 c0 0.43742 0.000097656 0.797 0.000097656 1.1565 c0 1.7861 0.00097656 3.572 -0.00085938 5.358 c-0.00033204 0.36028 0.010078 0.7225 -0.022696 1.0804 c-0.041016 0.44872 0.15313 0.78738 0.43504 1.0981 c0.076386 0.0842 0.16418 0.15799 0.23776 0.22798 c0.55104 0.042206 1.0857 0.083126 1.676 0.12826 c0.10818 0.048282 0.21388 0.16396 0.22702 0.34572 c0.032872 0.45424 0.061406 0.9087 0.093848 1.3629 c0.01334 0.18609 -0.027794 0.35342 -0.14748 0.50708 l-2.9564 0 c-0.66086 -0.61268 -1.2158 -1.3149 -1.7439 -2.0404 c-0.12012 -0.16494 -0.15896 -0.3467 -0.15863 -0.55114 c0.004121 -2.6868 -0.0022852 -5.3734 0.0073632 -8.06 c0.0017383 -0.48646 0.06164 -0.97284 0.098536 -1.4589 c0.015742 -0.2065 0.12393 -0.3669 0.27638 -0.4996 c0.25816 -0.22472 0.51686 -0.44902 0.77652 -0.67204 c0.22202 -0.19066 0.45216 -0.37232 0.6667 -0.57102 c0.19857 -0.18383 0.41192 -0.27032 0.69144 -0.30156 c0.68408 -0.07662 1.3674 -0.084316 2.0526 -0.07834 c0.12588 0.0010938 0.25154 0.023456 0.42268 0.040606 c0.036778 0.25708 0.098848 0.49342 0.097538 0.72944 c-0.0019531 0.34052 -0.040254 0.6818 -0.08127 1.0206 c-0.037442 0.30882 -0.19869 0.44578 -0.52772 0.4589 c-0.27812 0.011074 -0.55702 0.0027148 -0.83556 0.002832 c-0.17938 0.00011719 -0.35876 0 -0.4829 0 c-0.30818 0.27498 -0.57556 0.5135 -0.80204 0.71554 z M10.703 16.5912 c0.43232 0.4806 0.86778 0.96482 1.3295 1.4783 c-0.06414 0.070976 -0.11916 0.14498 -0.18688 0.20446 c-0.55126 0.4842 -1.1005 0.97088 -1.6599 1.4455 c-0.22692 0.19262 -0.49018 0.30374 -0.80444 0.2982 c-0.68626 -0.011934 -1.3728 -0.0036914 -2.0528 -0.0036914 c-0.27974 -0.2586 -0.26564 -0.60204 -0.31392 -0.91198 c-0.039824 -0.256 -0.028536 -0.52402 -0.0067188 -0.78392 c0.012578 -0.15008 0.091152 -0.29472 0.12838 -0.4066 c0.6105 -0.2166 1.1857 -0.13369 1.7586 -0.1568 c0.3913 -0.31698 0.78424 -0.63372 1.1753 -0.95298 c0.16799 -0.13705 0.3404 -0.25686 0.63296 -0.21052 z M7.2266 8.005 c-0.28692 -0.63296 -0.11619 -1.3151 -0.14973 -1.9847 c0.19271 -0.18588 0.42992 -0.24426 0.67148 -0.24804 c0.7034 -0.011074 1.4071 -0.0039062 2.1534 -0.0039062 c0.62364 0.58446 1.2049 1.2391 1.8522 1.8616 c-0.078242 0.12045 -0.12707 0.22158 -0.19891 0.3021 c-0.34692 0.38892 -0.6987 0.77362 -1.0514 1.1574 c-0.27606 0.30046 -0.45608 0.30208 -0.72954 -0.0038086 c-0.28138 -0.3148 -0.553 -0.63828 -0.79674 -0.92074 c-0.64014 -0.058496 -1.1735 -0.10711 -1.7509 -0.15984 z M19.183200000000003 17.8094 c0.40172 0.13131 0.76902 -0.077364 1.0826 0.17418 l0 0.9275 l0 0.96188 c-0.50492 0.058496 -0.9659 0.12512 -1.4316 0.13771 c-0.49126 0.01334 -0.9862 0.03711 -1.4738 -0.0069532 c-0.46586 -0.041992 -0.93084 0.080742 -1.3855 -0.01377 c-0.15094 -0.28138 -0.18133 -0.85726 -0.10352 -1.9031 c0.2853 -0.2447 0.6513 -0.20836 1.0397 -0.2419 c0.10146 -1.0816 -0.1148 -2.163 -0.068476 -3.248 c0.045898 -1.0752 0.069336 -2.1516 0.082792 -3.2276 c0.013672 -1.0945 0.0030468 -2.1892 0.0030468 -3.327 l-1.0557 0 l0 -1.8535 c0.13076 -0.14801 0.3022 -0.2179 0.51078 -0.21854 c1.228 -0.003789 2.4558 -0.01084 3.6838 -0.015293 c0.047852 -0.00021484 0.095704 0.015957 0.1416 0.024102 c0.064786 0.23558 0.088652 1.4929 0.03711 1.8877 c-0.27422 0.28582 -0.65802 0.1084 -1.0131 0.2232 c-0.0099804 0.14736 -0.027676 0.28844 -0.02789 0.42952 c-0.0020704 1.4583 0.0014063 2.9166 -0.0020704 4.375 c-0.0033594 1.4417 -0.013008 2.8834 -0.019629 4.325 c-0.00085938 0.19393 -0.000097656 0.38774 -0.000097656 0.59 z M36.556000000000004 5.975 c0.16484 0.37188 0.07168 0.71786 0.08752 1.0526 c0.016172 0.3428 0.0035938 0.6869 0.0035938 1.0308 c-0.24688 0.43178 -0.6881 0.18436 -1.0196 0.29788 c-0.54628 1.1804 -0.89004 2.4298 -1.3171 3.6494 c-0.38036 1.0859 -0.81246 2.1536 -1.1967 3.238 c-0.3134 0.8843 -0.59326 1.7805 -0.88126 2.6736 c-0.17883 0.5544 -0.33758 1.1154 -0.52226 1.6678 c-0.049376 0.14779 -0.16094 0.27474 -0.24004 0.40474 l-0.63828 0 c-0.027676 -0.12133 -0.07205 -0.2268 -0.072696 -0.3325 c-0.0096484 -1.6207 -0.0083398 -3.2414 -0.022012 -4.862 c-0.0040234 -0.4729 0.21084 -0.88116 0.3481 -1.3097 c0.26208 -0.81778 0.56298 -1.6233 0.85066 -2.4328 c0.20638 -0.58078 0.4221 -1.1583 0.6245 -1.7405 c0.10494 -0.30178 0.19002 -0.6104 0.29462 -0.95016 c-0.22018 -0.023106 -0.39292 -0.041328 -0.61506 -0.064668 c-0.0044532 -0.33986 -0.010527 -0.67798 -0.012813 -1.016 c-0.002168 -0.3264 -0.00042968 -0.65282 -0.00042968 -0.95276 c0.11926 -0.19174 0.256 -0.27464 0.46 -0.27996 c0.66596 -0.01748 1.3314 -0.057636 1.9974 -0.073692 c0.19109 -0.004668 0.38284 0.054688 0.57524 0.063144 c0.14324 0.0064062 0.2904 -0.0096484 0.43146 -0.037422 c0.29192 -0.05752 0.57818 -0.017051 0.86522 -0.025722 z M30.0192 15.7558 c-0.041348 0.6995 -0.047676 1.391 0.017441 2.0914 c0.058282 0.62602 0.012266 1.2618 0.012266 1.9356 c-0.046778 0.050468 -0.12316 0.13262 -0.20248 0.21792 l-0.70023 0 c-0.19262 -0.079766 -0.2802 -0.26576 -0.33542 -0.44926 c-0.21432 -0.71218 -0.40628 -1.4311 -0.6144 -2.1452 c-0.085938 -0.29484 -0.19869 -0.58176 -0.28734 -0.87584 c-0.2662 -0.88342 -0.52652 -1.7687 -0.7889 -2.6532 c-0.07834 -0.26424 -0.15365 -0.52954 -0.23418 -0.79312 c-0.28344 -0.9278 -0.5673 -1.8554 -0.85368 -2.7822 c-0.11502 -0.3723 -0.23394 -0.74332 -0.35722 -1.1129 c-0.091484 -0.2741 -0.19273 -0.54506 -0.29658 -0.83674 l-1.085 0 c-0.27444 -0.15311 -0.25328 -0.37046 -0.20208 -0.54996 c0.088106 -0.30862 0.08041 -0.59998 0.0072656 -0.90826 c-0.040156 -0.16939 -0.007168 -0.35616 -0.007168 -0.5671 c0.070312 -0.17092 0.21042 -0.27052 0.43786 -0.27694 c0.65 -0.018223 1.2994 -0.06088 1.9494 -0.073788 c0.23982 -0.0047656 0.48062 0.048946 0.72142 0.07086 c0.080742 0.0073828 0.1642 0.0072656 0.24428 -0.0044532 c0.11102 -0.01627 0.21932 -0.061406 0.33022 -0.068028 c0.19467 -0.011602 0.39064 -0.0032422 0.58434 -0.0032422 c0.17428 0.17123 0.21106 0.33184 0.1633 0.5734 c-0.05914 0.29876 -0.075528 0.63288 -0.0032618 0.92522 c0.16689 0.67518 -0.063808 0.79138 -0.61994 0.90686 c0.013789 0.10482 0.010215 0.21822 0.044726 0.3185 c0.6587 1.9159 1.3161 3.8324 1.9884 5.7434 c0.15408 0.43764 0.11285 0.88082 0.087032 1.3173 z M43.803200000000004 17.8094 c0.40172 0.13131 0.76902 -0.077364 1.0826 0.17418 l0 0.9275 l0 0.96188 c-0.50492 0.058496 -0.9659 0.12512 -1.4316 0.13771 c-0.49126 0.01334 -0.9862 0.03711 -1.4738 -0.0069532 c-0.46586 -0.041992 -0.93084 0.080742 -1.3855 -0.01377 c-0.15094 -0.28138 -0.18133 -0.85726 -0.10352 -1.9031 c0.2853 -0.2447 0.6513 -0.20836 1.0397 -0.2419 c0.10146 -1.0816 -0.1148 -2.163 -0.068476 -3.248 c0.045898 -1.0752 0.069336 -2.1516 0.082792 -3.2276 c0.013672 -1.0945 0.0030468 -2.1892 0.0030468 -3.327 l-1.0557 0 l0 -1.8535 c0.13076 -0.14801 0.3022 -0.2179 0.51078 -0.21854 c1.228 -0.003789 2.4558 -0.01084 3.6838 -0.015293 c0.047852 -0.00021484 0.095704 0.015957 0.1416 0.024102 c0.064786 0.23558 0.088652 1.4929 0.03711 1.8877 c-0.27422 0.28582 -0.65802 0.1084 -1.0131 0.2232 c-0.0099804 0.14736 -0.027676 0.28844 -0.02789 0.42952 c-0.0020704 1.4583 0.0014063 2.9166 -0.0020704 4.375 c-0.0033594 1.4417 -0.013008 2.8834 -0.019629 4.325 c-0.00085938 0.19393 -0.000097656 0.38774 -0.000097656 0.59 z M53.06940000000001 6.083 c0.0033594 0.55494 0.0026172 1.1098 0.0026172 1.7344 c-0.14184 0.37492 -0.5734 0.14486 -0.91456 0.28332 c-0.0055274 0.16646 -0.016387 0.34062 -0.016504 0.51468 c-0.0010938 2.3582 0.004004 4.7166 -0.005 7.0748 c-0.0016211 0.4384 -0.061094 0.87626 -0.088106 1.3148 c-0.010098 0.1632 -0.011504 0.32782 -0.0033594 0.49114 c0.018984 0.38164 0.047206 0.76276 0.069238 1.1442 c0.004668 0.081504 0.0018555 0.16387 -0.0026954 0.24558 c-0.01584 0.28604 -0.033848 0.5721 -0.054258 0.91174 c-0.18426 0.15432 -0.44926 0.24266 -0.7594 0.21812 c-0.45284 -0.0358 -0.90546 0.025078 -1.3634 -0.065644 c-0.28962 -0.057402 -0.60898 0.046016 -0.91576 0.058614 c-0.10189 0.004121 -0.20618 -0.049804 -0.31838 -0.079532 l0 -2.0299 c0.15691 -0.19445 0.25796 -0.2268 0.47238 -0.23558 c0.19305 -0.0078126 0.38664 -0.0016211 0.61746 -0.0016211 c0.019961 -0.16863 0.046876 -0.29222 0.047206 -0.41604 c0.0033594 -1.0975 0.018984 -2.1954 -0.005332 -3.2924 c-0.011836 -0.53248 0.0053126 -1.063 -0.044824 -1.5949 c-0.012266 -0.13 -0.005 -0.26196 -0.005 -0.39292 c-0.00021484 -1.1303 -0.000097656 -2.2604 -0.000097656 -3.3908 l0 -0.52531 l-1.0923 0 c-0.016602 -0.63948 -0.0056446 -1.2395 -0.0079296 -1.8541 c0.088984 -0.074648 0.17514 -0.14703 0.25402 -0.21334 c1.3679 -0.043086 2.7218 -0.033964 4.0408 -0.020176 c0.055352 0.069766 0.093106 0.095156 0.093222 0.12076 z M60.379000000000005 16.2514 c-0.011172 1.047 -0.0064062 2.094 -0.0025 3.1412 c0.00076172 0.2037 0.0022852 0.3975 -0.23266 0.50266 c-0.41886 -0.076074 -0.84978 -0.12066 -1.2823 -0.005957 c-0.07662 0.020294 -0.16549 0.031368 -0.24068 0.013457 c-0.46618 -0.11111 -0.92954 -0.1174 -1.3943 0.0047852 c-0.046114 0.012148 -0.097774 0.004121 -0.14682 0.004121 c-1.1611 0.00011719 -2.3224 0.00011719 -3.531 0.00011719 c-0.15561 -0.11969 -0.3456 -0.26596 -0.52932 -0.40724 c0 -0.4728 -0.0086718 -0.9138 0.004668 -1.354 c0.0047656 -0.15896 0.062382 -0.3163 0.10307 -0.5085 c0.38534 -0.18047 0.82058 -0.064472 1.2281 -0.15086 c0.408 -0.086484 0.85204 0.010098 1.2694 -0.04959 c0.42244 -0.06045 0.84142 -0.079336 1.2629 -0.066308 c0.42048 0.013027 0.84012 0.055996 1.266 0.08627 c0.2357 -0.69016 -0.039278 -1.3607 0.11904 -1.9963 c0.35192 -0.11557 0.6499 0.0052148 0.9506 0.012266 c0.30168 0.007168 0.60508 -0.060214 0.88396 -0.09211 c0.21432 0.28972 0.27508 0.56068 0.27182 0.86604 z"></path></g><g id="SvgjsG1989" featureKey="sloganFeature-0" transform="matrix(0.5457398321751754,0,0,0.5457398321751754,4.519749145459909,149.12940861807766)" fill="#ffffff"><path d="M13.48 9.96 l-1.88 0 c-0.54 -2.52 -2.64 -2.98 -4.02 -2.98 c-2.6 0 -4.7 1.92 -4.7 5.7 c0 3.38 1.2 5.98 4.76 5.98 c1.26 0 3.44 -0.6 4.1 -3.94 l1.88 0 c-0.8 5.42 -5.2 5.66 -6.28 5.66 c-3.26 0 -6.46 -2.12 -6.46 -7.64 c0 -4.42 2.52 -7.48 6.7 -7.48 c3.7 0 5.62 2.3 5.9 4.7 z M25.38 5.640000000000001 l1.94 0 l0 9.32 c0 2.94 -1.84 5.42 -5.78 5.42 c-3.86 0 -5.52 -2.48 -5.52 -5.16 l0 -9.58 l1.94 0 l0 9.04 c0 3.12 1.9 3.98 3.64 3.98 c1.78 0 3.78 -0.82 3.78 -3.94 l0 -9.08 z M32.58 13.84 l0 6.16 l-1.94 0 l0 -14.36 l6.64 0 c2.36 0 4.72 0.82 4.72 3.86 c0 2.12 -1.08 2.9 -2 3.44 c0.82 0.34 1.64 0.7 1.72 2.7 l0.12 2.6 c0.02 0.8 0.12 1.1 0.72 1.44 l0 0.32 l-2.38 0 c-0.28 -0.88 -0.34 -3.06 -0.34 -3.6 c0 -1.18 -0.24 -2.56 -2.56 -2.56 l-4.7 0 z M32.58 7.300000000000001 l0 4.88 l4.5 0 c1.42 0 2.92 -0.36 2.92 -2.48 c0 -2.22 -1.62 -2.4 -2.58 -2.4 l-4.84 0 z M47.02 13.84 l0 6.16 l-1.94 0 l0 -14.36 l6.64 0 c2.36 0 4.72 0.82 4.72 3.86 c0 2.12 -1.08 2.9 -2 3.44 c0.82 0.34 1.64 0.7 1.72 2.7 l0.12 2.6 c0.02 0.8 0.12 1.1 0.72 1.44 l0 0.32 l-2.38 0 c-0.28 -0.88 -0.34 -3.06 -0.34 -3.6 c0 -1.18 -0.24 -2.56 -2.56 -2.56 l-4.7 0 z M47.02 7.300000000000001 l0 4.88 l4.5 0 c1.42 0 2.92 -0.36 2.92 -2.48 c0 -2.22 -1.62 -2.4 -2.58 -2.4 l-4.84 0 z M70.08 18.28 l0 1.72 l-10.6 0 l0 -14.36 l10.46 0 l0 1.72 l-8.52 0 l0 4.4 l7.86 0 l0 1.72 l-7.86 0 l0 4.8 l8.66 0 z M82.13999999999999 17.240000000000002 l0 -11.6 l1.88 0 l0 14.36 l-2.18 0 l-7.3 -11.6 l-0.04 0 l0 11.6 l-1.88 0 l0 -14.36 l2.3 0 l7.18 11.6 l0.04 0 z M99.02 9.96 l-1.88 0 c-0.54 -2.52 -2.64 -2.98 -4.02 -2.98 c-2.6 0 -4.7 1.92 -4.7 5.7 c0 3.38 1.2 5.98 4.76 5.98 c1.26 0 3.44 -0.6 4.1 -3.94 l1.88 0 c-0.8 5.42 -5.2 5.66 -6.28 5.66 c-3.26 0 -6.46 -2.12 -6.46 -7.64 c0 -4.42 2.52 -7.48 6.7 -7.48 c3.7 0 5.62 2.3 5.9 4.7 z M107.61999999999999 14.219999999999999 l0 5.78 l-1.94 0 l0 -5.78 l-5.42 -8.58 l2.26 0 l4.12 6.9 l4.12 -6.9 l2.28 0 z M122.53999999999999 13.48 l0 6.52 l-1.94 0 l0 -14.36 l9.94 0 l0 1.72 l-8 0 l0 4.4 l7.04 0 l0 1.72 l-7.04 0 z M143.88 12.82 c0 -3.38 -1.88 -5.84 -5 -5.84 s-5 2.46 -5 5.84 s1.88 5.84 5 5.84 s5 -2.46 5 -5.84 z M145.88 12.82 c0 3.1 -1.64 7.56 -7 7.56 s-7 -4.46 -7 -7.56 s1.64 -7.56 7 -7.56 s7 4.46 7 7.56 z M150.35999999999999 13.84 l0 6.16 l-1.94 0 l0 -14.36 l6.64 0 c2.36 0 4.72 0.82 4.72 3.86 c0 2.12 -1.08 2.9 -2 3.44 c0.82 0.34 1.64 0.7 1.72 2.7 l0.12 2.6 c0.02 0.8 0.12 1.1 0.72 1.44 l0 0.32 l-2.38 0 c-0.28 -0.88 -0.34 -3.06 -0.34 -3.6 c0 -1.18 -0.24 -2.56 -2.56 -2.56 l-4.7 0 z M150.35999999999999 7.300000000000001 l0 4.88 l4.5 0 c1.42 0 2.92 -0.36 2.92 -2.48 c0 -2.22 -1.62 -2.4 -2.58 -2.4 l-4.84 0 z M180.14 9.96 l-1.88 0 c-0.54 -2.52 -2.64 -2.98 -4.02 -2.98 c-2.6 0 -4.7 1.92 -4.7 5.7 c0 3.38 1.2 5.98 4.76 5.98 c1.26 0 3.44 -0.6 4.1 -3.94 l1.88 0 c-0.8 5.42 -5.2 5.66 -6.28 5.66 c-3.26 0 -6.46 -2.12 -6.46 -7.64 c0 -4.42 2.52 -7.48 6.7 -7.48 c3.7 0 5.62 2.3 5.9 4.7 z M184.85999999999999 5.640000000000001 l0 14.36 l-1.94 0 l0 -14.36 l1.94 0 z M193.35999999999999 17.88 l4.06 -12.24 l2.18 0 l-5.24 14.36 l-2.06 0 l-5.24 -14.36 l2.16 0 l4.1 12.24 l0.04 0 z M203.76 5.640000000000001 l0 14.36 l-1.94 0 l0 -14.36 l1.94 0 z M209.02 5.640000000000001 l0 12.64 l7.28 0 l0 1.72 l-9.22 0 l0 -14.36 l1.94 0 z M220.44 5.640000000000001 l0 14.36 l-1.94 0 l0 -14.36 l1.94 0 z M234 18.28 l0 1.72 l-11.3 0 l0 -1.62 l8.8 -11.02 l-8.14 0 l0 -1.72 l10.64 0 l0 1.68 l-8.84 10.96 l8.84 0 z M244 15.82 l-5.76 0 l-1.5 4.18 l-2 0 l5.4 -14.36 l2.2 0 l5.2 14.36 l-2.12 0 z M238.84 14.1 l4.46 0 l-2.12 -6.32 l-0.04 0 z M248.08 7.359999999999999 l0 -1.72 l11.66 0 l0 1.72 l-4.86 0 l0 12.64 l-1.94 0 l0 -12.64 l-4.86 0 z M263.78000000000003 5.640000000000001 l0 14.36 l-1.94 0 l0 -14.36 l1.94 0 z M278.36 12.82 c0 -3.38 -1.88 -5.84 -5 -5.84 s-5 2.46 -5 5.84 s1.88 5.84 5 5.84 s5 -2.46 5 -5.84 z M280.36 12.82 c0 3.1 -1.64 7.56 -7 7.56 s-7 -4.46 -7 -7.56 s1.64 -7.56 7 -7.56 s7 4.46 7 7.56 z M292.18000000000006 17.240000000000002 l0 -11.6 l1.88 0 l0 14.36 l-2.18 0 l-7.3 -11.6 l-0.04 0 l0 11.6 l-1.88 0 l0 -14.36 l2.3 0 l7.18 11.6 l0.04 0 z"></path></g>
			</g>
		</svg>
	