
        <svg xmlns="http://www.w3.org/2000/svg" xmlns:xlink="http://www.w3.org/1999/xlink" version="1.1" width="3300.9411764705883"
        height="1800.9103355219227" viewBox="600 200 2000.9411764705883 1300.9103355219227">

			<g transform="scale(17.647058823529413) translate(10, 10)">
				<defs id="SvgjsDefs1986"><linearGradient id="SvgjsLinearGradient1993"><stop id="SvgjsStop1994" stop-color="#b88746" offset="0"></stop><stop id="SvgjsStop1995" stop-color="#fdf5a6" offset="1"></stop></linearGradient></defs><g id="SvgjsG1987" featureKey="aMgJeN-0" transform="matrix(1.0337091943666192,0,0,1.0337091943666192,33.31505401811152,-14.407838467165229)" fill="url(#SvgjsLinearGradient1993)"><polygon xmlns="http://www.w3.org/2000/svg" points="42.021,89.823 98.369,53.589 82.566,61.219 82.574,61.292 82.527,61.238 82.264,61.365 82.281,61.389 "></polygon><polygon xmlns="http://www.w3.org/2000/svg" points="79.395,61.174 38.895,57.391 36.811,91.25 "></polygon><polygon xmlns="http://www.w3.org/2000/svg" points="3.71,38.712 34.918,92.062 37.066,57.146 "></polygon><polygon xmlns="http://www.w3.org/2000/svg" points="95.209,45.172 80.775,27.29 79.232,32.516 95.928,46.175 "></polygon><polygon xmlns="http://www.w3.org/2000/svg" points="98.135,50.979 79.758,35.645 82.281,58.632 "></polygon><polygon xmlns="http://www.w3.org/2000/svg" points="61.512,33.498 79.758,54.504 77.424,33.356 "></polygon><polygon xmlns="http://www.w3.org/2000/svg" points="59.756,34.836 39.467,54.979 80.432,58.808 "></polygon><polygon xmlns="http://www.w3.org/2000/svg" points="58.445,33.191 36.674,27.365 38.974,52.971 "></polygon><polygon xmlns="http://www.w3.org/2000/svg" points="37.133,54.393 34.822,28.537 6.776,37.639 "></polygon><polygon xmlns="http://www.w3.org/2000/svg" points="8.923,35.031 34.527,26.292 25.659,19.867 "></polygon><polygon xmlns="http://www.w3.org/2000/svg" points="1.63,26.184 3.25,37.485 20.957,21.022 "></polygon><polygon xmlns="http://www.w3.org/2000/svg" points="28.355,14.604 7.837,21.987 26.101,17.109 "></polygon><polygon xmlns="http://www.w3.org/2000/svg" points="36.751,24.86 60.131,31.196 77.148,30.907 78.672,25.749 67.951,19.853 48.173,14.486 32.256,13.938 28.073,18.586   "></polygon></g>
			</g>
		</svg>
