<svg version="1.1" id="Layer_1" xmlns="http://www.w3.org/2000/svg" xmlns:xlink="http://www.w3.org/1999/xlink" x="0px" y="0px"
	 width="100%" viewBox="0 0 1920 3201" enable-background="new 0 0 1920 3201" xml:space="preserve">
<path fill="#4C6971" opacity="0.000000" stroke="none"
	d="
M2.000003,1648.000000
	C2.000000,1099.509888 2.000000,551.019775 2.000000,2.000000
	C321.386871,2.000000 640.774048,2.000000 960.975159,2.496099
	C961.784058,3.330281 961.778931,3.668364 961.167847,4.294596
	C958.610718,7.672410 956.562134,10.705300 954.723083,13.860373
	C929.959961,56.342999 905.193665,98.823891 880.492615,141.342636
	C846.927734,199.118973 813.471497,256.958527 779.867615,314.712128
	C753.788025,359.533997 727.512085,404.241516 701.399780,449.044342
	C675.116089,494.141235 648.971619,539.319275 622.682495,584.412964
	C599.407471,624.336609 575.923828,664.138794 552.701111,704.092712
	C521.801697,757.254089 491.152130,810.560791 460.233734,863.711121
	C433.320160,909.977051 406.124634,956.078796 379.158752,1002.314331
	C347.166565,1057.167847 315.281067,1112.083496 283.360199,1166.978516
	C250.439835,1223.592163 217.559555,1280.229248 184.611679,1336.826904
	C152.002197,1392.843140 119.316383,1448.814941 86.689888,1504.821289
	C60.075397,1550.507568 33.513271,1596.224243 6.862433,1641.889282
	C5.563867,1644.114258 3.635259,1645.971558 2.000003,1648.000000
z"/>
<path fill="#4C6971" opacity="0.000000" stroke="none"
	d="
M964.000000,2.000001
	C1283.230469,2.000000 1602.460938,2.000000 1922.000000,2.000000
	C1922.000000,550.053650 1922.000000,1098.107422 1921.524780,1646.598511
	C1918.888184,1643.675903 1916.585693,1640.397461 1914.587036,1636.943237
	C1890.769165,1595.779541 1867.062988,1554.551025 1843.193481,1513.417603
	C1819.643188,1472.834595 1795.924438,1432.349487 1772.306274,1391.805786
	C1736.138306,1329.718628 1699.996216,1267.616455 1663.837036,1205.524170
	C1639.725342,1164.119385 1615.572998,1122.738037 1591.493286,1081.314697
	C1568.918213,1042.479736 1546.470093,1003.570801 1523.862915,964.754456
	C1502.435181,927.962891 1480.805420,891.289001 1459.389282,854.490662
	C1435.455444,813.366150 1411.711548,772.131104 1387.795654,730.996155
	C1357.520508,678.923401 1327.181396,626.887878 1296.821045,574.864746
	C1269.156372,527.460571 1241.365356,480.129974 1213.744263,432.700500
	C1190.638428,393.023956 1167.759155,353.215424 1144.667114,313.530884
	C1120.243652,271.558441 1095.631592,229.695801 1071.202759,187.726562
	C1041.409302,136.540833 1011.694641,85.309219 982.008423,34.061268
	C975.864990,23.455664 969.995667,12.691215 964.000000,2.000001
z"/>
<path fill="#4C6971" opacity="0.000000" stroke="none"
	d="
M964.000000,3204.000000
	C643.448792,3204.000000 322.897644,3204.000000 2.000000,3204.000000
	C2.000000,2742.614990 2.000000,2281.229980 2.221065,1818.934326
	C2.442129,1818.023682 2.884182,1818.048828 3.697119,1818.130615
	C5.052972,1818.168457 5.595890,1818.124512 6.076565,1818.036011
	C6.014322,1817.991455 5.883931,1817.911255 5.943722,1818.617432
	C6.260522,1819.937256 6.418957,1820.618896 6.788697,1821.154907
	C31.737360,1857.323730 56.655544,1893.513672 81.678947,1929.630859
	C113.340157,1975.328857 145.151810,2020.922729 176.781479,2066.642578
	C211.815369,2117.282715 246.656021,2168.056641 281.694672,2218.693604
	C313.139496,2264.136963 344.813751,2309.421875 376.250366,2354.871094
	C411.846741,2406.334229 447.222351,2457.950195 482.822479,2509.410645
	C513.881470,2554.307129 545.169434,2599.044922 576.266052,2643.915527
	C622.145752,2710.117188 667.980225,2776.350342 713.769226,2842.614990
	C758.244629,2906.978760 802.604614,2971.422363 847.078674,3035.786865
	C882.841919,3087.544678 918.677612,3139.252441 954.559204,3190.928467
	C957.367554,3194.972900 960.790771,3198.590576 963.899048,3202.806885
	C963.869873,3203.207275 964.000000,3204.000000 964.000000,3204.000000
z"/>
<path fill="#4C6971" opacity="0.000000" stroke="none"
	d="
M1922.000000,1822.000000
	C1922.000000,2282.500244 1922.000000,2743.000244 1922.000000,3204.000000
	C1603.948486,3204.000000 1285.896729,3204.000000 967.097412,3203.327637
	C973.582947,3191.893799 980.718140,3181.065430 988.066162,3170.383301
	C1020.129822,3123.771729 1052.212646,3077.173340 1084.369385,3030.626221
	C1121.259277,2977.227783 1158.217163,2923.876465 1195.178223,2870.527344
	C1225.507202,2826.750977 1255.885498,2783.009033 1286.238647,2739.249512
	C1308.621704,2706.980713 1331.035400,2674.732666 1353.370239,2642.430420
	C1379.861694,2604.116699 1406.230591,2565.718262 1432.755005,2527.427490
	C1448.676880,2504.442383 1464.890137,2481.658936 1480.798950,2458.665039
	C1501.433350,2428.841064 1521.839111,2398.859131 1542.446167,2369.016113
	C1564.574097,2336.971191 1586.873047,2305.044189 1609.002441,2273.000000
	C1635.100952,2235.208496 1661.038330,2197.305664 1687.161255,2159.531250
	C1702.875000,2136.808350 1718.892334,2114.295898 1734.623901,2091.585693
	C1755.084351,2062.048828 1775.366089,2032.388062 1795.779785,2002.818604
	C1828.298218,1955.715576 1860.800903,1908.601562 1893.445190,1861.586060
	C1902.723022,1848.223633 1912.468872,1835.186401 1922.000000,1822.000000
z"/>
<path fill="#FE9C92" opacity="1.000000" stroke="none"
	d="
M963.500000,2.000001
	C969.995667,12.691215 975.864990,23.455664 982.008423,34.061268
	C1011.694641,85.309219 1041.409302,136.540833 1071.202759,187.726562
	C1095.631592,229.695801 1120.243652,271.558441 1144.667114,313.530884
	C1167.759155,353.215424 1190.638428,393.023956 1213.744263,432.700500
	C1241.365356,480.129974 1269.156372,527.460571 1296.821045,574.864746
	C1327.181396,626.887878 1357.520508,678.923401 1387.795654,730.996155
	C1411.711548,772.131104 1435.455444,813.366150 1459.389282,854.490662
	C1480.805420,891.289001 1502.435181,927.962891 1523.862915,964.754456
	C1546.470093,1003.570801 1568.918213,1042.479736 1591.493286,1081.314697
	C1615.572998,1122.738037 1639.725342,1164.119385 1663.837036,1205.524170
	C1699.996216,1267.616455 1736.138306,1329.718628 1772.306274,1391.805786
	C1795.924438,1432.349487 1819.643188,1472.834595 1843.193481,1513.417603
	C1867.062988,1554.551025 1890.769165,1595.779541 1914.587036,1636.943237
	C1916.585693,1640.397461 1918.888184,1643.675903 1921.524780,1647.517944
	C1922.000000,1648.888916 1922.000000,1649.777832 1921.329590,1651.514282
	C1914.504761,1656.315796 1908.383301,1660.322388 1902.190063,1664.214966
	C1866.706299,1686.518433 1831.178223,1708.751099 1795.716675,1731.089722
	C1732.115234,1771.154297 1668.554932,1811.284180 1604.968628,1851.372925
	C1570.928467,1872.833862 1536.844360,1894.225464 1502.826904,1915.722534
	C1465.140137,1939.538452 1427.563599,1963.529175 1389.835327,1987.279175
	C1345.931763,2014.916626 1301.866333,2042.297363 1257.962769,2069.935059
	C1218.573730,2094.730469 1179.350952,2119.790283 1139.979126,2144.613525
	C1083.706909,2180.091797 1027.377319,2215.479492 971.018738,2250.820312
	C968.307129,2252.520752 965.079834,2253.398682 962.117432,2253.681396
	C962.155029,2250.369873 962.179138,2248.037109 962.179138,2245.704102
	C962.185913,1503.132690 962.191772,760.561157 962.178711,17.989710
	C962.178650,13.328620 961.914612,8.667535 961.773804,4.006447
	C961.778931,3.668364 961.784058,3.330281 961.894531,2.496099
	C962.000000,2.000000 963.000000,2.000000 963.500000,2.000001
M1110.212646,1993.542358
	C1148.755127,1969.300537 1187.313477,1945.083862 1225.836304,1920.810547
	C1276.452881,1888.916992 1327.036987,1856.971802 1377.643677,1825.062500
	C1425.713867,1794.752808 1473.781250,1764.438721 1521.876953,1734.169556
	C1549.995361,1716.473145 1578.224365,1698.951782 1606.288086,1681.169189
	C1618.903564,1673.175537 1631.236084,1664.735596 1645.159546,1656.194214
	C1646.394043,1655.710449 1647.740967,1655.406738 1648.846313,1654.716431
	C1673.649780,1639.230103 1698.485962,1623.794556 1723.165527,1608.112793
	C1729.121094,1604.328613 1729.239258,1602.236450 1724.874390,1594.707397
	C1709.374390,1567.971069 1693.792603,1541.281860 1678.122559,1514.645142
	C1676.476318,1511.846680 1674.041382,1509.512085 1671.409302,1505.583496
	C1654.569336,1476.506226 1637.754761,1447.414185 1620.883911,1418.354614
	C1590.650879,1366.279175 1560.429932,1314.196777 1530.120972,1262.165405
	C1481.043335,1177.913574 1431.885986,1093.708252 1382.785767,1009.469543
	C1332.678833,923.503723 1282.548950,837.551147 1232.525757,751.536560
	C1192.872681,683.353333 1153.374023,615.080200 1113.754028,546.877686
	C1112.552124,544.808594 1110.761719,543.081299 1109.245850,541.194641
	C1108.583862,541.390625 1107.921875,541.586548 1107.259888,541.782471
	C1107.065918,546.303406 1106.703125,550.824280 1106.702515,555.345215
	C1106.674438,761.958435 1106.682983,968.571594 1106.650024,1175.184814
	C1106.649170,1180.501465 1106.234863,1185.818115 1105.378540,1192.804932
	C1105.027222,1197.768433 1104.373291,1202.731812 1104.371460,1207.695435
	C1104.352173,1259.975220 1104.480469,1312.255005 1104.485229,1364.534790
	C1104.503906,1567.995483 1104.489258,1771.456055 1104.511475,1974.916748
	C1104.511963,1979.904907 1104.466187,1984.937622 1105.130615,1989.856567
	C1105.359375,1991.549316 1107.691162,1992.958008 1110.212646,1993.542358
z"/>
<path fill="#FEE94D" opacity="1.000000" stroke="none"
	d="
M961.167847,4.294596
	C961.914612,8.667535 962.178650,13.328620 962.178711,17.989710
	C962.191772,760.561157 962.185913,1503.132690 962.179138,2245.704102
	C962.179138,2248.037109 962.155029,2250.369873 961.379639,2253.689941
	C945.143066,2244.963379 929.657532,2235.267822 914.197449,2225.532227
	C883.253052,2206.045898 852.333435,2186.520264 821.383850,2167.041992
	C780.018616,2141.009033 738.617126,2115.033447 697.263916,2088.981201
	C656.727844,2063.444092 616.239319,2037.831299 575.717896,2012.270752
	C535.764404,1987.068359 495.799927,1961.883301 455.832733,1936.702637
	C409.401306,1907.449097 362.968384,1878.197876 316.523285,1848.965942
	C287.529510,1830.717651 258.474945,1812.565674 229.514969,1794.263916
	C194.087967,1771.875244 158.758316,1749.332397 123.335320,1726.937500
	C95.782639,1709.518188 68.213020,1692.123901 40.527065,1674.917969
	C27.837980,1667.031982 14.851596,1659.624512 2.000004,1652.000000
	C2.000000,1651.111084 2.000000,1650.222168 2.000003,1648.666626
	C3.635259,1645.971558 5.563867,1644.114258 6.862433,1641.889282
	C33.513271,1596.224243 60.075397,1550.507568 86.689888,1504.821289
	C119.316383,1448.814941 152.002197,1392.843140 184.611679,1336.826904
	C217.559555,1280.229248 250.439835,1223.592163 283.360199,1166.978516
	C315.281067,1112.083496 347.166565,1057.167847 379.158752,1002.314331
	C406.124634,956.078796 433.320160,909.977051 460.233734,863.711121
	C491.152130,810.560791 521.801697,757.254089 552.701111,704.092712
	C575.923828,664.138794 599.407471,624.336609 622.682495,584.412964
	C648.971619,539.319275 675.116089,494.141235 701.399780,449.044342
	C727.512085,404.241516 753.788025,359.533997 779.867615,314.712128
	C813.471497,256.958527 846.927734,199.118973 880.492615,141.342636
	C905.193665,98.823891 929.959961,56.342999 954.723083,13.860373
	C956.562134,10.705300 958.610718,7.672410 961.167847,4.294596
M810.478455,1991.544067
	C812.592468,1992.896118 814.556824,1994.665405 816.859619,1995.490967
	C819.533020,1996.449341 820.164978,1994.775024 819.295044,1990.473633
	C819.312378,1779.536621 819.329773,1568.599731 819.849243,1355.957886
	C819.943359,1354.295288 820.118958,1352.632690 820.119629,1350.970093
	C820.140442,1300.306152 820.159058,1249.642212 820.112732,1198.978271
	C820.109985,1196.008301 819.561768,1193.038696 819.181641,1188.187378
	C819.163025,971.869873 819.144470,755.552368 819.370300,538.461853
	C817.301392,535.529663 816.551880,537.208008 814.940735,540.651367
	C792.289917,579.350525 769.578735,618.014587 747.007019,656.759827
	C728.436279,688.637146 710.101318,720.651855 691.537109,752.533020
	C658.101501,809.953674 624.516907,867.287659 591.097839,924.717896
	C556.839600,983.590271 522.750671,1042.561157 488.501556,1101.438843
	C462.771332,1145.671509 436.862091,1189.800049 411.110809,1234.020508
	C384.192169,1280.245728 357.376282,1326.530640 330.498718,1372.779785
	C304.129364,1418.154541 277.738800,1463.517090 250.457962,1509.434814
	C232.084991,1540.533691 213.712021,1571.632568 195.059723,1603.204224
	C198.474762,1605.823486 200.660431,1607.783325 203.106445,1609.331909
	C226.974579,1624.441772 250.869629,1639.509399 274.813232,1654.499146
	C277.009003,1655.873779 279.593567,1656.627319 283.178955,1658.392090
	C296.627441,1666.980713 310.031952,1675.639282 323.533081,1684.144409
	C359.273010,1706.659302 395.092987,1729.047485 430.809479,1751.599243
	C469.622040,1776.105835 508.303680,1800.819824 547.133667,1825.298706
	C594.117065,1854.917358 641.211121,1884.360352 688.229553,1913.923706
	C728.783875,1939.422852 769.299255,1964.983887 810.478455,1991.544067
z"/>
<path fill="#5A9DEC" opacity="1.000000" stroke="none"
	d="
M1922.000000,1821.200195
	C1912.468872,1835.186401 1902.723022,1848.223633 1893.445190,1861.586060
	C1860.800903,1908.601562 1828.298218,1955.715576 1795.779785,2002.818604
	C1775.366089,2032.388062 1755.084351,2062.048828 1734.623901,2091.585693
	C1718.892334,2114.295898 1702.875000,2136.808350 1687.161255,2159.531250
	C1661.038330,2197.305664 1635.100952,2235.208496 1609.002441,2273.000000
	C1586.873047,2305.044189 1564.574097,2336.971191 1542.446167,2369.016113
	C1521.839111,2398.859131 1501.433350,2428.841064 1480.798950,2458.665039
	C1464.890137,2481.658936 1448.676880,2504.442383 1432.755005,2527.427490
	C1406.230591,2565.718262 1379.861694,2604.116699 1353.370239,2642.430420
	C1331.035400,2674.732666 1308.621704,2706.980713 1286.238647,2739.249512
	C1255.885498,2783.009033 1225.507202,2826.750977 1195.178223,2870.527344
	C1158.217163,2923.876465 1121.259277,2977.227783 1084.369385,3030.626221
	C1052.212646,3077.173340 1020.129822,3123.771729 988.066162,3170.383301
	C980.718140,3181.065430 973.582947,3191.893799 966.174927,3203.327637
	C966.000000,3204.000000 965.000000,3204.000000 964.500000,3204.000000
	C964.000000,3204.000000 963.869873,3203.207275 963.905762,3201.838867
	C963.961426,2943.374512 963.986450,2686.278809 963.951172,2429.183105
	C963.950684,2425.225342 963.205811,2421.267578 963.473755,2417.047607
	C972.956848,2411.443604 981.858459,2406.234863 990.578064,2400.737549
	C1034.492554,2373.051270 1078.306519,2345.205811 1122.256958,2317.576904
	C1172.392090,2286.060059 1222.661499,2254.756836 1272.820435,2223.278320
	C1315.370361,2196.574707 1357.844727,2169.750732 1400.355957,2142.985840
	C1430.756958,2123.845703 1461.123779,2104.650635 1491.580566,2085.599365
	C1516.405029,2070.071533 1541.417969,2054.844482 1566.208862,2039.263428
	C1608.470093,2012.702393 1650.585938,1985.910400 1692.831665,1959.324585
	C1731.410767,1935.046265 1770.091431,1910.929443 1808.708008,1886.710693
	C1842.248047,1865.675415 1875.786865,1844.637817 1909.254639,1823.488037
	C1913.718750,1820.666748 1917.761963,1817.179077 1922.000000,1814.000000
	C1922.000000,1816.133423 1922.000000,1818.266724 1922.000000,1821.200195
M1280.678589,2493.755371
	C1322.659424,2433.173340 1364.640137,2372.591309 1406.620850,2312.009521
	C1406.130737,2311.482666 1405.640503,2310.955811 1405.150269,2310.429199
	C1402.624756,2311.743164 1399.992798,2312.887695 1397.589478,2314.396240
	C1350.778198,2343.783691 1303.991211,2373.209717 1257.203735,2402.635254
	C1210.423828,2432.055420 1163.768799,2461.678223 1116.750366,2490.711914
	C1109.174805,2495.389404 1106.626953,2500.477539 1106.662476,2509.146240
	C1106.971680,2584.457520 1106.839355,2659.770508 1106.838379,2735.083008
	C1106.838379,2737.196777 1106.838379,2739.310547 1106.838379,2743.343018
	C1110.219971,2739.376953 1112.352417,2737.257080 1114.043823,2734.829590
	C1124.130615,2720.353516 1134.094238,2705.791992 1144.138794,2691.286377
	C1166.690796,2658.719238 1189.289307,2626.184082 1211.825928,2593.606445
	C1234.552734,2560.754150 1257.227783,2527.866211 1280.678589,2493.755371
z"/>
<path fill="#4D6A72" opacity="0.000000" stroke="none"
	d="
M1922.000000,1813.062744
	C1917.761963,1817.179077 1913.718750,1820.666748 1909.254639,1823.488037
	C1875.786865,1844.637817 1842.248047,1865.675415 1808.708008,1886.710693
	C1770.091431,1910.929443 1731.410767,1935.046265 1692.831665,1959.324585
	C1650.585938,1985.910400 1608.470093,2012.702393 1566.208862,2039.263428
	C1541.417969,2054.844482 1516.405029,2070.071533 1491.580566,2085.599365
	C1461.123779,2104.650635 1430.756958,2123.845703 1400.355957,2142.985840
	C1357.844727,2169.750732 1315.370361,2196.574707 1272.820435,2223.278320
	C1222.661499,2254.756836 1172.392090,2286.060059 1122.256958,2317.576904
	C1078.306519,2345.205811 1034.492554,2373.051270 990.578064,2400.737549
	C981.858459,2406.234863 972.956848,2411.443604 962.901001,2416.449707
	C960.560242,2415.367188 959.478821,2414.587158 958.352051,2413.878906
	C903.686646,2379.530029 849.011597,2345.196289 794.350159,2310.840820
	C734.630676,2273.306396 674.936768,2235.731201 615.205933,2198.214844
	C577.731812,2174.677490 540.185669,2151.254639 502.716980,2127.708740
	C460.172424,2100.972900 417.708313,2074.109131 375.154419,2047.388550
	C323.016235,2014.649658 270.787476,1982.054932 218.659241,1949.300293
	C152.448700,1907.697021 86.321396,1865.961304 20.075356,1824.414795
	C15.704466,1821.673584 10.630717,1820.053101 5.883923,1817.911255
	C5.883931,1817.911255 6.014322,1817.991455 5.827499,1817.544556
	C4.721841,1817.414673 3.803006,1817.731689 2.884177,1818.048828
	C2.884182,1818.048828 2.442129,1818.023682 2.221065,1818.011841
	C2.000000,1763.291504 2.000000,1708.583130 2.000004,1652.937256
	C14.851596,1659.624512 27.837980,1667.031982 40.527065,1674.917969
	C68.213020,1692.123901 95.782639,1709.518188 123.335320,1726.937500
	C158.758316,1749.332397 194.087967,1771.875244 229.514969,1794.263916
	C258.474945,1812.565674 287.529510,1830.717651 316.523285,1848.965942
	C362.968384,1878.197876 409.401306,1907.449097 455.832733,1936.702637
	C495.799927,1961.883301 535.764404,1987.068359 575.717896,2012.270752
	C616.239319,2037.831299 656.727844,2063.444092 697.263916,2088.981201
	C738.617126,2115.033447 780.018616,2141.009033 821.383850,2167.041992
	C852.333435,2186.520264 883.253052,2206.045898 914.197449,2225.532227
	C929.657532,2235.267822 945.143066,2244.963379 961.354980,2254.668457
	C965.079834,2253.398682 968.307129,2252.520752 971.018738,2250.820312
	C1027.377319,2215.479492 1083.706909,2180.091797 1139.979126,2144.613525
	C1179.350952,2119.790283 1218.573730,2094.730469 1257.962769,2069.935059
	C1301.866333,2042.297363 1345.931763,2014.916626 1389.835327,1987.279175
	C1427.563599,1963.529175 1465.140137,1939.538452 1502.826904,1915.722534
	C1536.844360,1894.225464 1570.928467,1872.833862 1604.968628,1851.372925
	C1668.554932,1811.284180 1732.115234,1771.154297 1795.716675,1731.089722
	C1831.178223,1708.751099 1866.706299,1686.518433 1902.190063,1664.214966
	C1908.383301,1660.322388 1914.504761,1656.315796 1921.329590,1652.180908
	C1922.000000,1705.375122 1922.000000,1758.750244 1922.000000,1813.062744
z"/>
<path fill="#53D3E0" opacity="1.000000" stroke="none"
	d="
M5.943714,1818.617432
	C10.630717,1820.053101 15.704466,1821.673584 20.075356,1824.414795
	C86.321396,1865.961304 152.448700,1907.697021 218.659241,1949.300293
	C270.787476,1982.054932 323.016235,2014.649658 375.154419,2047.388550
	C417.708313,2074.109131 460.172424,2100.972900 502.716980,2127.708740
	C540.185669,2151.254639 577.731812,2174.677490 615.205933,2198.214844
	C674.936768,2235.731201 734.630676,2273.306396 794.350159,2310.840820
	C849.011597,2345.196289 903.686646,2379.530029 958.352051,2413.878906
	C959.478821,2414.587158 960.560242,2415.367188 962.235535,2416.711914
	C963.205811,2421.267578 963.950684,2425.225342 963.951172,2429.183105
	C963.986450,2686.278809 963.961426,2943.374512 963.934998,3201.438477
	C960.790771,3198.590576 957.367554,3194.972900 954.559204,3190.928467
	C918.677612,3139.252441 882.841919,3087.544678 847.078674,3035.786865
	C802.604614,2971.422363 758.244629,2906.978760 713.769226,2842.614990
	C667.980225,2776.350342 622.145752,2710.117188 576.266052,2643.915527
	C545.169434,2599.044922 513.881470,2554.307129 482.822479,2509.410645
	C447.222351,2457.950195 411.846741,2406.334229 376.250366,2354.871094
	C344.813751,2309.421875 313.139496,2264.136963 281.694672,2218.693604
	C246.656021,2168.056641 211.815369,2117.282715 176.781479,2066.642578
	C145.151810,2020.922729 113.340157,1975.328857 81.678947,1929.630859
	C56.655544,1893.513672 31.737360,1857.323730 6.788697,1821.154907
	C6.418957,1820.618896 6.260522,1819.937256 5.943714,1818.617432
M792.370605,2478.730713
	C702.464172,2422.585205 612.942383,2365.820068 522.980408,2309.763916
	C522.407104,2310.391357 521.833801,2311.019043 521.260498,2311.646484
	C620.172302,2454.579834 719.084106,2597.512939 819.192993,2742.176025
	C819.807373,2737.831055 820.376709,2735.677734 820.377991,2733.523926
	C820.423157,2657.193604 820.358521,2580.863281 820.528809,2504.533447
	C820.541565,2498.817139 818.544189,2495.102051 813.902893,2492.251465
	C807.093323,2488.068848 800.373962,2483.739502 792.370605,2478.730713
z"/>
<path fill="#53D3E0" opacity="1.000000" stroke="none"
	d="
M3.697113,1818.130615
	C3.803006,1817.731689 4.721841,1817.414673 5.889741,1817.589111
	C5.595890,1818.124512 5.052972,1818.168457 3.697113,1818.130615
z"/>
<path fill="#4E6A71" opacity="0.000000" stroke="none"
	d="
M1106.013306,1191.134766
	C1106.234863,1185.818115 1106.649170,1180.501465 1106.650024,1175.184814
	C1106.682983,968.571594 1106.674438,761.958435 1106.702515,555.345215
	C1106.703125,550.824280 1107.065918,546.303406 1107.259888,541.782471
	C1107.921875,541.586548 1108.583862,541.390625 1109.245850,541.194641
	C1110.761719,543.081299 1112.552124,544.808594 1113.754028,546.877686
	C1153.374023,615.080200 1192.872681,683.353333 1232.525757,751.536560
	C1282.548950,837.551147 1332.678833,923.503723 1382.785767,1009.469543
	C1431.885986,1093.708252 1481.043335,1177.913574 1530.120972,1262.165405
	C1560.429932,1314.196777 1590.650879,1366.279175 1620.883911,1418.354614
	C1637.754761,1447.414185 1654.569336,1476.506226 1671.095825,1506.150513
	C1665.980103,1504.524292 1660.994995,1502.657227 1656.405518,1500.084229
	C1628.857422,1484.639893 1601.433228,1468.974731 1573.904907,1453.494629
	C1531.895630,1429.871704 1489.805054,1406.393433 1447.805298,1382.753784
	C1402.617920,1357.319824 1357.527222,1331.714233 1312.335327,1306.288330
	C1266.576660,1280.543701 1220.769653,1254.884644 1174.936890,1229.271973
	C1152.016235,1216.463135 1128.991211,1203.841187 1106.013306,1191.134766
z"/>
<path fill="#4D6971" opacity="0.000000" stroke="none"
	d="
M1643.697021,1656.498047
	C1631.236084,1664.735596 1618.903564,1673.175537 1606.288086,1681.169189
	C1578.224365,1698.951782 1549.995361,1716.473145 1521.876953,1734.169556
	C1473.781250,1764.438721 1425.713867,1794.752808 1377.643677,1825.062500
	C1327.036987,1856.971802 1276.452881,1888.916992 1225.836304,1920.810547
	C1187.313477,1945.083862 1148.755127,1969.300537 1109.258789,1993.250366
	C1107.961792,1988.002075 1107.319702,1983.045898 1107.318481,1978.089478
	C1107.268066,1776.249390 1107.275269,1574.409180 1107.276245,1372.569092
	C1107.276245,1369.904541 1107.138184,1367.228027 1107.345581,1364.579224
	C1107.514526,1362.422607 1108.105347,1360.298950 1108.725342,1357.016235
	C1113.348511,1359.436646 1117.163452,1361.312134 1120.864624,1363.390381
	C1164.649536,1387.973633 1208.397339,1412.623535 1252.195923,1437.182495
	C1293.372070,1460.270996 1334.650635,1483.177612 1375.784180,1506.341675
	C1408.802246,1524.935181 1441.615967,1543.891113 1474.619507,1562.510986
	C1516.613770,1586.203003 1558.676636,1609.774780 1600.776855,1633.278198
	C1614.978394,1641.206665 1629.384399,1648.768555 1643.697021,1656.498047
z"/>
<path fill="#CB71C1" opacity="1.000000" stroke="none"
	d="
M1644.428223,1656.346191
	C1629.384399,1648.768555 1614.978394,1641.206665 1600.776855,1633.278198
	C1558.676636,1609.774780 1516.613770,1586.203003 1474.619507,1562.510986
	C1441.615967,1543.891113 1408.802246,1524.935181 1375.784180,1506.341675
	C1334.650635,1483.177612 1293.372070,1460.270996 1252.195923,1437.182495
	C1208.397339,1412.623535 1164.649536,1387.973633 1120.864624,1363.390381
	C1117.163452,1361.312134 1113.348511,1359.436646 1108.725342,1357.016235
	C1108.105347,1360.298950 1107.514526,1362.422607 1107.345581,1364.579224
	C1107.138184,1367.228027 1107.276245,1369.904541 1107.276245,1372.569092
	C1107.275269,1574.409180 1107.268066,1776.249390 1107.318481,1978.089478
	C1107.319702,1983.045898 1107.961792,1988.002075 1108.683594,1993.727539
	C1107.691162,1992.958008 1105.359375,1991.549316 1105.130615,1989.856567
	C1104.466187,1984.937622 1104.511963,1979.904907 1104.511475,1974.916748
	C1104.489258,1771.456055 1104.503906,1567.995483 1104.485229,1364.534790
	C1104.480469,1312.255005 1104.352173,1259.975220 1104.371460,1207.695435
	C1104.373291,1202.731812 1105.027222,1197.768433 1105.695923,1191.969849
	C1128.991211,1203.841187 1152.016235,1216.463135 1174.936890,1229.271973
	C1220.769653,1254.884644 1266.576660,1280.543701 1312.335327,1306.288330
	C1357.527222,1331.714233 1402.617920,1357.319824 1447.805298,1382.753784
	C1489.805054,1406.393433 1531.895630,1429.871704 1573.904907,1453.494629
	C1601.433228,1468.974731 1628.857422,1484.639893 1656.405518,1500.084229
	C1660.994995,1502.657227 1665.980103,1504.524292 1671.377319,1506.839844
	C1674.041382,1509.512085 1676.476318,1511.846680 1678.122559,1514.645142
	C1693.792603,1541.281860 1709.374390,1567.971069 1724.874390,1594.707397
	C1729.239258,1602.236450 1729.121094,1604.328613 1723.165527,1608.112793
	C1698.485962,1623.794556 1673.649780,1639.230103 1648.846313,1654.716431
	C1647.740967,1655.406738 1646.394043,1655.710449 1644.428223,1656.346191
z"/>
<path fill="#4D6A71" opacity="0.000000" stroke="none"
	d="
M819.125916,539.234863
	C819.144470,755.552368 819.163025,971.869873 818.582275,1189.250000
	C795.396179,1203.027344 772.810181,1215.743408 750.222412,1228.456543
	C707.682373,1252.399536 665.146240,1276.349731 622.599243,1300.280640
	C574.497681,1327.335938 526.360596,1354.328369 478.286407,1381.432373
	C437.463226,1404.448364 396.760284,1427.678101 355.905975,1450.638672
	C321.129089,1470.183228 286.212372,1489.479126 251.357529,1508.885010
	C277.738800,1463.517090 304.129364,1418.154541 330.498718,1372.779785
	C357.376282,1326.530640 384.192169,1280.245728 411.110809,1234.020508
	C436.862091,1189.800049 462.771332,1145.671509 488.501556,1101.438843
	C522.750671,1042.561157 556.839600,983.590271 591.097839,924.717896
	C624.516907,867.287659 658.101501,809.953674 691.537109,752.533020
	C710.101318,720.651855 728.436279,688.637146 747.007019,656.759827
	C769.578735,618.014587 792.289917,579.350525 815.769897,540.347229
	C817.441345,539.773682 818.283630,539.504272 819.125916,539.234863
z"/>
<path fill="#4D6A71" opacity="0.000000" stroke="none"
	d="
M819.347107,1357.662720
	C819.329773,1568.599731 819.312378,1779.536621 818.617065,1991.251953
	C815.236755,1991.526123 812.534302,1991.021851 809.831909,1990.517578
	C769.299255,1964.983887 728.783875,1939.422852 688.229553,1913.923706
	C641.211121,1884.360352 594.117065,1854.917358 547.133667,1825.298706
	C508.303680,1800.819824 469.622040,1776.105835 430.809479,1751.599243
	C395.092987,1729.047485 359.273010,1706.659302 323.533081,1684.144409
	C310.031952,1675.639282 296.627441,1666.980713 282.965637,1657.644287
	C293.390686,1650.756836 303.982178,1644.534302 314.675842,1638.492676
	C352.010773,1617.399536 389.354553,1596.321777 426.745697,1575.328491
	C459.175629,1557.120850 491.695740,1539.073975 524.134460,1520.881958
	C541.819397,1510.964111 559.377991,1500.821045 577.064209,1490.905518
	C608.935669,1473.037476 640.880249,1455.299561 672.755920,1437.438965
	C695.379272,1424.762817 717.967163,1412.022583 740.519836,1399.220947
	C759.581055,1388.401123 778.380737,1377.100952 797.691162,1366.750244
	C804.511108,1363.094604 810.687012,1357.186768 819.347107,1357.662720
z"/>
<path fill="#88D649" opacity="1.000000" stroke="none"
	d="
M819.598145,1356.810303
	C810.687012,1357.186768 804.511108,1363.094604 797.691162,1366.750244
	C778.380737,1377.100952 759.581055,1388.401123 740.519836,1399.220947
	C717.967163,1412.022583 695.379272,1424.762817 672.755920,1437.438965
	C640.880249,1455.299561 608.935669,1473.037476 577.064209,1490.905518
	C559.377991,1500.821045 541.819397,1510.964111 524.134460,1520.881958
	C491.695740,1539.073975 459.175629,1557.120850 426.745697,1575.328491
	C389.354553,1596.321777 352.010773,1617.399536 314.675842,1638.492676
	C303.982178,1644.534302 293.390686,1650.756836 282.374969,1657.282837
	C279.593567,1656.627319 277.009003,1655.873779 274.813232,1654.499146
	C250.869629,1639.509399 226.974579,1624.441772 203.106445,1609.331909
	C200.660431,1607.783325 198.474762,1605.823486 195.059723,1603.204224
	C213.712021,1571.632568 232.084991,1540.533691 250.907730,1509.159912
	C286.212372,1489.479126 321.129089,1470.183228 355.905975,1450.638672
	C396.760284,1427.678101 437.463226,1404.448364 478.286407,1381.432373
	C526.360596,1354.328369 574.497681,1327.335938 622.599243,1300.280640
	C665.146240,1276.349731 707.682373,1252.399536 750.222412,1228.456543
	C772.810181,1215.743408 795.396179,1203.027344 818.625183,1190.190796
	C819.561768,1193.038696 820.109985,1196.008301 820.112732,1198.978271
	C820.159058,1249.642212 820.140442,1300.306152 820.119629,1350.970093
	C820.118958,1352.632690 819.943359,1354.295288 819.598145,1356.810303
z"/>
<path fill="#88D649" opacity="1.000000" stroke="none"
	d="
M810.155151,1991.030762
	C812.534302,1991.021851 815.236755,1991.526123 818.615356,1992.214111
	C820.164978,1994.775024 819.533020,1996.449341 816.859619,1995.490967
	C814.556824,1994.665405 812.592468,1992.896118 810.155151,1991.030762
z"/>
<path fill="#88D649" opacity="1.000000" stroke="none"
	d="
M819.248108,538.848389
	C818.283630,539.504272 817.441345,539.773682 816.279541,539.740417
	C816.551880,537.208008 817.301392,535.529663 819.248108,538.848389
z"/>
<path fill="#4D6A73" opacity="0.000000" stroke="none"
	d="
M1280.302002,2494.374756
	C1257.227783,2527.866211 1234.552734,2560.754150 1211.825928,2593.606445
	C1189.289307,2626.184082 1166.690796,2658.719238 1144.138794,2691.286377
	C1134.094238,2705.791992 1124.130615,2720.353516 1114.043823,2734.829590
	C1112.352417,2737.257080 1110.219971,2739.376953 1106.838379,2743.343018
	C1106.838379,2739.310547 1106.838379,2737.196777 1106.838379,2735.083008
	C1106.839355,2659.770508 1106.971680,2584.457520 1106.662476,2509.146240
	C1106.626953,2500.477539 1109.174805,2495.389404 1116.750366,2490.711914
	C1163.768799,2461.678223 1210.423828,2432.055420 1257.203735,2402.635254
	C1303.991211,2373.209717 1350.778198,2343.783691 1397.589478,2314.396240
	C1399.992798,2312.887695 1402.624756,2311.743164 1405.150269,2310.429199
	C1405.640503,2310.955811 1406.130737,2311.482666 1406.620850,2312.009521
	C1364.640137,2372.591309 1322.659424,2433.173340 1280.302002,2494.374756
z"/>
<path fill="#4D6B73" opacity="0.000000" stroke="none"
	d="
M792.993408,2479.101562
	C800.373962,2483.739502 807.093323,2488.068848 813.902893,2492.251465
	C818.544189,2495.102051 820.541565,2498.817139 820.528809,2504.533447
	C820.358521,2580.863281 820.423157,2657.193604 820.377991,2733.523926
	C820.376709,2735.677734 819.807373,2737.831055 819.192993,2742.176025
	C719.084106,2597.512939 620.172302,2454.579834 521.260498,2311.646484
	C521.833801,2311.019043 522.407104,2310.391357 522.980408,2309.763916
	C612.942383,2365.820068 702.464172,2422.585205 792.993408,2479.101562
z"/>
</svg>