<svg version="1.1" id="Layer_1" xmlns="http://www.w3.org/2000/svg" xmlns:xlink="http://www.w3.org/1999/xlink" x="0px" y="0px"
	 width="100%" viewBox="0 0 267 267" enable-background="new 0 0 267 267" xml:space="preserve">
<path fill="#3E3934" opacity="0.000000" stroke="none"
	d="
M142.235046,267.686707
	C136.977905,268.000000 131.955811,268.000000 126.466858,268.000000
	C125.180305,265.295654 126.848495,262.836121 126.724007,260.151642
	C126.503853,255.404144 125.384979,253.945389 120.640907,253.309631
	C98.529587,250.346497 78.404762,242.484299 60.913971,228.516861
	C34.822357,207.681213 19.291555,180.754410 15.694096,147.425415
	C11.954626,112.780777 21.940035,82.282578 44.596958,55.884293
	C60.968410,36.809414 81.556793,24.600319 105.828758,18.465179
	C112.470612,16.786341 113.191216,17.400850 113.302437,23.994143
	C113.444374,32.407707 113.272820,32.612862 105.232147,35.167038
	C67.110733,47.276611 42.630352,72.734253 33.709213,111.594070
	C26.475885,143.101944 32.882305,172.527893 52.983418,198.361069
	C68.783905,218.667236 89.598488,230.964920 114.736549,236.086197
	C115.389740,236.219269 116.043915,236.348587 116.703049,236.448120
	C125.332329,237.751190 126.665138,236.607758 126.686653,227.788300
	C126.706573,219.622864 126.723442,211.457153 126.680389,203.291855
	C126.642967,196.195770 125.987961,195.388245 119.284698,193.660263
	C95.830338,187.614166 77.231178,167.081619 73.917282,143.576920
	C69.480522,112.107956 88.948494,82.992844 119.907219,75.048378
	C123.923477,74.017746 126.637352,72.492798 126.675858,67.885170
	C126.719810,62.626835 124.927193,60.865757 119.682022,61.763130
	C108.450157,63.684742 98.363991,68.378906 89.370636,75.245941
	C60.820660,97.045769 53.146721,133.733124 66.486229,164.565018
	C74.324669,182.682144 87.800621,195.306229 105.842522,203.087936
	C112.796379,206.087219 115.399452,211.802414 112.993881,219.088898
	C112.055740,221.930557 110.098450,221.361664 108.158470,220.847763
	C100.835236,218.907852 94.040382,215.577118 87.744522,211.562363
	C62.669682,195.572510 47.896191,173.011032 44.571903,143.119598
	C39.473087,97.271950 72.368797,54.522984 116.835426,45.770386
	C126.699524,43.828785 126.688530,43.765739 126.690994,33.941280
	C126.692917,26.275703 126.615501,18.609009 126.727188,10.945080
	C126.774414,7.703849 126.288101,4.657311 124.916039,1.383913
	C130.354935,1.000000 135.709854,1.000000 141.532394,1.000000
	C143.829727,3.514148 142.160522,6.177167 142.282959,8.765701
	C142.510620,13.578738 143.633850,15.044089 148.296402,15.686377
	C189.507217,21.363356 220.011292,42.809238 240.187424,78.874481
	C247.817810,92.513969 251.919022,107.440636 253.387939,123.111115
	C256.434723,155.614258 247.355957,184.445572 227.032013,209.661728
	C210.771149,229.836761 189.851242,243.287201 164.793030,250.142990
	C158.822708,251.776443 156.888763,251.246765 155.965012,247.956589
	C154.050125,241.136169 156.006073,235.714508 161.172806,234.414246
	C176.514664,230.553314 189.943695,223.144623 201.936111,212.953918
	C216.524811,200.557007 227.187332,185.331940 232.621033,167.037781
	C244.713135,126.326134 236.358200,90.113655 206.264572,59.852337
	C190.810562,44.312225 171.597382,35.267139 149.763702,32.166012
	C143.949585,31.340212 142.413315,32.559555 142.344513,38.370686
	C142.234055,47.702450 142.286758,57.036236 142.322784,66.368958
	C142.347366,72.735840 143.050858,73.419792 149.398727,75.246559
	C173.896637,82.296471 189.161285,98.283264 194.382401,123.208313
	C200.498260,152.404770 183.075882,182.243134 154.814621,191.928848
	C152.607986,192.685120 150.388870,193.400391 148.141373,194.035614
	C143.258362,195.415771 142.137192,196.963654 142.348969,201.822998
	C142.558594,206.633102 144.310974,208.226700 149.045059,207.254959
	C156.087021,205.809464 162.967850,203.647659 169.261322,200.151306
	C211.898849,176.463989 221.745102,122.778465 190.297729,85.522995
	C182.638748,76.449448 173.098755,69.898064 162.093384,65.444214
	C156.295715,63.097908 153.368988,54.862301 156.242584,49.281418
	C157.588608,46.667252 159.697739,47.822086 161.474716,48.355396
	C173.137985,51.855850 183.587509,57.706867 192.767563,65.621170
	C208.971725,79.591095 219.645966,97.057983 223.188889,118.220856
	C228.907913,152.382217 218.189804,180.970627 192.169846,203.683655
	C180.107819,214.212662 165.835144,220.432480 150.124161,223.433075
	C142.681168,224.854599 142.326813,225.352158 142.319061,232.957306
	C142.307358,244.429489 142.245956,255.902145 142.235046,267.686707
z"/>
<path fill="#0090DA" opacity="1.000000" stroke="none"
	d="
M142.458069,268.000000
	C139.907288,254.787750 141.392899,241.485901 141.081512,228.229370
	C141.012039,225.271561 142.375366,223.438507 146.089951,222.855286
	C167.895340,219.431564 186.691849,209.924255 201.235931,193.141235
	C214.351898,178.006180 221.770859,160.462967 223.138367,140.153732
	C224.716888,116.710854 217.752426,96.074997 203.374802,78.210014
	C191.510025,63.467381 176.087891,53.162937 157.340881,48.525356
	C157.223099,48.876286 157.080109,49.156338 157.037369,49.450939
	C155.820099,57.841133 158.001251,62.483189 167.081299,66.511604
	C189.997055,76.678329 204.245773,95.515305 208.703812,120.156311
	C213.359009,145.887100 206.544830,168.775345 187.782639,187.908188
	C176.880768,199.025406 163.652405,205.124146 149.013153,208.845901
	C145.573471,209.720398 141.953430,209.526505 141.028030,204.696564
	C139.711777,197.826675 141.592392,193.957886 146.561981,192.974777
	C169.016296,188.532730 189.153763,169.386795 193.055679,145.872787
	C196.637955,124.284866 190.833817,105.823158 175.099701,90.693947
	C167.291443,83.185867 157.896454,78.229370 147.209610,76.043045
	C142.848236,75.150795 140.749023,73.136230 140.905014,68.310631
	C141.222549,58.487793 140.998886,48.647495 141.000366,38.814388
	C141.001572,30.912621 142.115265,30.021637 149.729218,30.960440
	C165.638351,32.922047 180.018250,38.740002 193.265945,47.645458
	C217.880157,64.191757 232.754242,87.438225 237.719864,116.265747
	C242.914932,146.425369 236.163910,174.543610 217.334305,198.957443
	C202.985916,217.561050 184.045578,229.962418 161.164078,235.741302
	C157.687210,236.619446 156.833359,237.774765 156.969391,240.909714
	C157.398361,250.795319 154.240891,251.718063 167.123215,248.056870
	C190.119125,241.521393 209.202545,228.727539 224.573471,210.736710
	C238.844864,194.032837 247.559464,174.650711 251.186722,152.698929
	C255.366959,127.400566 251.143616,103.633774 239.878799,81.156563
	C229.372208,60.192295 213.612762,43.753448 193.116821,31.989592
	C178.578415,23.645117 163.103287,18.436583 146.380371,16.982454
	C143.158508,16.702299 141.223465,14.846082 141.044205,11.614369
	C140.862289,8.334933 140.757965,5.012932 141.997726,1.424590
	C146.689255,1.000000 151.378510,1.000000 156.533875,1.000000
	C161.050446,2.544063 165.424042,2.578174 169.568939,3.786974
	C214.558044,16.907373 245.428955,45.247318 261.871490,89.187988
	C265.153168,97.957840 267.530670,106.934074 267.774689,116.696762
	C268.000000,128.354233 268.000000,139.708450 268.000000,151.531342
	C266.512482,171.664368 259.631104,189.561630 249.258881,206.044388
	C229.228409,237.875290 200.550797,257.832794 163.995529,266.492981
	C160.602463,267.296844 157.067505,267.184418 153.301819,267.774963
	C149.638718,268.000000 146.277420,268.000000 142.458069,268.000000
z"/>
<path fill="#3E3934" opacity="1.000000" stroke="none"
	d="
M124.545891,1.000000
	C127.170570,2.658245 128.087723,4.750760 128.052353,7.577294
	C127.920990,18.073286 127.925606,28.572691 128.036285,39.069160
	C128.081085,43.319782 126.692810,45.347504 122.057236,46.123596
	C91.459839,51.246216 68.761612,67.719406 54.519573,95.213760
	C49.621483,104.669563 46.906116,114.991310 45.880219,125.841652
	C42.925323,157.093948 54.534275,182.297012 77.381203,202.675049
	C87.116936,211.358734 98.852638,217.035004 111.998650,220.710663
	C111.998650,216.802231 111.970039,213.085892 112.010620,209.370316
	C112.031197,207.486664 111.401131,206.548401 109.382973,205.916367
	C98.482994,202.502792 89.012039,196.285019 81.128784,188.357727
	C69.591301,176.755737 62.262848,162.759537 59.880054,146.148743
	C56.933903,125.610718 60.999218,106.957214 73.020950,90.154991
	C84.808861,73.679550 101.012047,63.921425 120.798607,60.035297
	C124.417686,59.324501 127.327621,60.179909 127.999863,64.534241
	C129.005737,71.049507 127.132774,75.189507 122.525047,75.969994
	C100.407272,79.716507 79.541771,100.212891 75.858246,122.672752
	C72.158997,145.228363 78.422630,164.104553 95.047943,179.391800
	C102.876564,186.590347 112.299492,191.335632 123.017258,192.998581
	C126.668602,193.565094 127.884506,196.300934 127.930954,199.337616
	C128.101669,210.499161 128.115631,221.666702 127.940987,232.828125
	C127.870796,237.313766 125.587128,238.475204 120.998558,238.097183
	C101.976196,236.529999 85.218826,229.031845 70.413086,217.614960
	C49.983879,201.861710 37.159637,181.114685 31.842823,155.602402
	C29.577713,144.733459 29.293024,133.829102 30.240070,123.089249
	C31.825800,105.106514 38.297401,88.506615 48.828194,73.725487
	C63.668945,52.894875 83.599274,39.345722 108.390419,33.037285
	C111.005554,32.371826 112.301598,31.297161 112.052299,28.412455
	C111.809296,25.600605 112.003624,22.751583 111.986557,19.918995
	C111.983582,19.424555 111.884651,18.930693 111.820671,18.351788
	C91.136650,22.806742 72.826691,31.588287 56.727524,45.571053
	C36.142776,63.449715 23.467159,85.834991 18.218678,112.105438
	C11.911352,143.675735 18.274731,173.404999 36.140759,200.112747
	C53.360123,225.853790 77.656380,242.221558 107.687012,249.729996
	C112.502449,250.933990 117.473503,252.300400 122.633415,252.041870
	C125.798958,251.883255 127.659752,254.105011 127.871124,256.830078
	C128.142395,260.327454 128.930191,264.131073 126.115211,267.625366
	C121.643097,268.000000 117.286201,268.000000 112.464645,268.000000
	C103.559601,266.250610 95.188873,264.248291 87.107666,261.185181
	C56.300461,249.507889 32.735962,229.343170 16.484264,200.702576
	C10.454797,190.076752 5.821729,178.878067 3.083800,166.897827
	C2.074631,162.482040 1.522760,158.089935 1.224532,153.299377
	C1.000000,140.979111 1.000000,128.958206 1.000000,116.468658
	C2.060468,102.984283 5.654137,90.679527 11.065017,78.816750
	C23.098267,52.435131 41.608036,31.908766 66.628311,17.355173
	C81.405396,8.759759 97.069061,2.527802 114.698807,1.224923
	C118.030594,1.000000 121.061188,1.000000 124.545891,1.000000
z"/>
</svg>