<svg version="1.1" id="Layer_1" xmlns="http://www.w3.org/2000/svg" xmlns:xlink="http://www.w3.org/1999/xlink" x="0px" y="0px"
	 width='200px' height='200px' viewBox="275 -200 650 1050" enable-background="new 0 0 1250 650" xml:space="preserve" fill='royalblue'>

<path opacity="1.000000" stroke="none"
	d="
M994.910400,174.069885
	C1009.084961,186.459824 1012.854370,202.781509 1013.788208,220.161209
	C1014.371338,231.014648 1013.032715,241.762146 1011.450012,252.497162
	C1010.975586,255.715164 1009.817200,255.696014 1007.350098,254.878220
	C995.158875,250.837097 982.631104,248.142014 969.993286,245.988312
	C967.394409,245.545410 966.633179,244.946381 967.380249,242.204498
	C969.102539,235.883377 969.570251,229.416733 968.382874,222.906693
	C968.233582,222.088104 968.052795,221.271820 967.827881,220.470947
	C965.016785,210.459610 956.262085,204.181030 947.973633,206.220749
	C939.768555,208.239929 935.344482,217.929657 937.929260,228.335419
	C939.595825,235.044632 943.655151,240.338776 948.465210,245.013718
	C955.631531,251.978775 963.132751,258.598877 970.313477,265.549683
	C981.466919,276.345978 989.447510,288.856537 991.649414,304.660706
	C995.000000,328.710114 978.181580,350.953857 953.965393,352.667175
	C918.976929,355.142670 890.393127,336.976593 884.953674,296.637573
	C883.537537,286.135284 883.935364,275.747711 886.128235,265.133575
	C899.421509,270.779694 913.080811,274.315918 926.787842,277.654877
	C929.470947,278.308472 930.331970,279.108337 929.446411,281.972687
	C927.963257,286.770020 927.456055,291.773071 928.048401,296.800720
	C929.267578,307.150085 936.123108,313.349701 944.730103,311.981354
	C953.087341,310.652740 959.109009,300.924591 957.325745,291.647308
	C956.373230,286.691864 953.505249,282.851776 950.150574,279.298767
	C944.748352,273.577148 938.375916,268.992279 932.252197,264.122498
	C926.245605,259.345825 920.395996,254.414764 915.286865,248.655106
	C904.126770,236.073898 900.868408,221.652740 904.979797,205.409714
	C915.356750,164.412674 961.134644,148.277954 994.910400,174.069885
z"/>
<path opacity="1.000000" stroke="none"
	d="
M688.863220,364.073181
	C717.933777,378.976379 727.437073,430.153625 683.927734,454.343689
	C683.770874,455.155609 684.350647,455.487762 684.911865,455.792755
	C714.834778,472.053864 710.817017,510.491150 686.138245,526.902405
	C674.403503,534.705994 661.130981,537.434204 647.329651,538.431335
	C634.946838,539.325989 622.702881,538.305969 610.489258,536.343018
	C607.885803,535.924561 606.975525,535.332947 607.601379,532.211792
	C613.333130,503.628235 614.171814,474.672852 613.474487,445.647369
	C612.797485,417.470245 610.687744,389.421356 604.624695,361.806885
	C604.225098,359.987091 604.366455,359.088196 606.411682,358.708832
	C634.229126,353.548950 661.890259,350.651794 688.863220,364.073181
z"/>
<path opacity="1.000000" stroke="none"
	d="
M414.585205,408.321075
	C406.344025,402.382050 397.133148,405.345184 394.146973,414.793640
	C391.626404,422.769012 393.433868,429.945526 399.238953,436.002777
	C403.575775,440.528076 409.014008,443.444916 414.578247,446.134216
	C422.358246,449.894440 430.324738,453.307526 437.909576,457.425140
	C457.317383,467.961151 465.686371,483.368866 462.666992,502.161621
	C459.486481,521.957092 445.454132,535.936218 424.546295,539.931091
	C414.481201,541.854248 404.342072,542.272888 394.323029,539.712341
	C377.440582,535.397766 366.266663,524.409180 359.241852,508.866211
	C355.295288,500.134094 353.351135,490.863556 352.489502,481.345337
	C352.326355,479.543304 351.911957,478.231384 354.829193,478.573334
	C366.502777,479.941681 378.125122,478.737885 389.636047,476.833130
	C393.335602,476.221008 394.646027,476.514404 394.369354,480.649048
	C394.069366,485.132385 394.857086,489.637054 396.519440,493.879608
	C399.045746,500.327087 403.158295,505.092407 410.499512,505.835083
	C415.769104,506.368195 421.531525,502.922028 423.749176,497.728912
	C426.629669,490.983704 426.357178,484.360474 421.480072,478.496277
	C417.329559,473.505737 411.653687,470.631195 405.930450,467.877136
	C395.598633,462.905487 384.757477,458.982758 374.984680,452.859802
	C363.986206,445.968903 355.746643,436.937347 353.033325,423.834290
	C345.272644,386.356537 375.886230,352.699615 413.950653,356.318878
	C438.375000,358.641235 453.627106,371.615753 461.068298,394.540283
	C464.427155,404.888275 466.117737,415.547577 467.025177,426.358490
	C467.204468,428.494263 467.086029,429.663940 464.253021,429.522766
	C451.313202,428.878021 438.677856,431.004089 426.317108,434.646637
	C422.867554,435.663177 421.799561,435.416595 421.775330,431.447693
	C421.725220,423.228363 420.806885,415.091675 414.585205,408.321075
z"/>
<path opacity="1.000000" stroke="none"
	d="
M108.311844,223.633942
	C107.719391,222.384369 107.401276,221.408600 106.850990,220.588623
	C105.256592,218.212799 105.710312,216.970993 108.562187,216.055481
	C122.663864,211.528473 136.475067,206.312622 149.087402,197.380661
	C150.761536,206.741196 152.256851,215.717224 153.988495,224.647430
	C156.998520,240.170532 160.968262,255.455826 165.395767,270.637512
	C166.429520,274.182159 167.967346,274.529907 171.050644,273.634552
	C179.060776,271.308411 186.736954,268.211212 194.258423,264.618256
	C197.234222,263.196716 197.365158,261.699402 196.330414,258.830719
	C188.530197,237.205826 179.409164,216.166519 168.552414,195.907837
	C166.762360,192.567612 167.371078,191.819946 170.811035,190.817245
	C184.057785,186.955948 197.077682,182.424362 209.705826,175.016678
	C218.485413,235.393738 237.993408,292.073395 261.960327,347.633636
	C249.657104,350.646667 237.604523,353.802307 226.077957,358.642944
	C222.730789,360.048584 223.417465,357.037659 223.207413,355.666565
	C221.265472,342.991211 218.387238,330.523529 215.051056,318.158600
	C213.230560,311.411285 211.052917,304.758057 209.330292,297.987610
	C208.630585,295.237488 207.319519,294.619019 204.756836,295.048035
	C196.217239,296.477539 187.764664,298.222351 179.477188,300.790070
	C176.699051,301.650848 175.828308,302.541473 176.982147,305.623047
	C183.515457,323.071442 190.160583,340.468842 198.743118,357.035706
	C200.382309,360.199829 200.157120,361.238983 196.499786,362.342346
	C184.657272,365.915222 173.569427,371.336792 163.157272,377.971405
	C159.210602,380.486206 158.627533,379.204498 157.808640,375.417633
	C147.805725,329.161133 134.740860,283.839050 115.946014,240.303650
	C113.574913,234.811340 110.974365,229.418076 108.311844,223.633942
z"/>
<path opacity="1.000000" stroke="none"
	d="
M478.196411,465.911041
	C478.053162,441.716583 481.158173,418.245117 483.380005,394.710999
	C484.425659,383.634918 485.287079,372.553040 485.133362,360.870819
	C499.693665,367.012573 514.619629,367.289520 529.987366,366.894928
	C525.192139,381.869049 521.202209,396.626953 518.549133,411.699432
	C514.084961,437.060974 511.510468,462.509888 516.070374,488.169250
	C517.123718,494.096741 518.838013,499.830933 522.193298,504.911957
	C527.341797,512.708374 535.837280,513.613220 542.597412,507.090820
	C547.696533,502.171051 550.184387,495.789520 551.977478,489.164581
	C557.308289,469.467834 557.768677,449.370636 556.484619,429.168427
	C555.118347,407.672821 551.961548,386.476227 545.351685,365.905731
	C544.403809,362.955902 545.388428,362.571136 548.067139,362.755249
	C552.881775,363.086273 557.721924,363.208649 562.548950,363.163177
	C572.224365,363.072021 581.795898,362.330627 591.472595,356.228333
	C591.472595,364.442047 591.266174,371.676422 591.509583,378.895630
	C592.401550,405.355743 594.778809,431.780487 593.214172,458.294769
	C592.118958,476.855408 589.473999,495.055573 580.944458,511.909790
	C570.551086,532.446838 554.358154,543.916931 530.841309,541.862793
	C508.154816,539.881104 492.715515,527.474060 484.633759,506.129944
	C479.789642,493.336487 478.688599,479.911072 478.196411,465.911041
z"/>
<path opacity="1.000000" stroke="none"
	d="
M722.842590,484.149170
	C721.320801,473.998535 721.314880,474.041626 730.714478,475.336578
	C738.644226,476.429016 746.628052,476.944031 754.627380,476.911011
	C757.315735,476.899902 758.378235,477.495575 758.294983,480.472809
	C758.164551,485.142395 758.962646,489.757935 760.817993,494.128967
	C764.723389,503.329681 773.012817,508.096405 781.400940,505.929199
	C789.218933,503.909302 794.427856,495.327850 793.610291,485.865967
	C793.032654,479.181183 789.916077,473.888550 784.862610,469.612457
	C778.699585,464.397491 771.504028,460.878174 764.434387,457.162262
	C756.320129,452.897339 748.156250,448.670013 741.213257,442.604889
	C726.068298,429.374695 717.894531,413.001251 723.269165,392.871979
	C728.885925,371.836090 743.779114,359.605316 764.978699,355.161407
	C773.732971,353.326233 782.577515,353.609985 791.298523,355.454315
	C807.866272,358.958099 819.155029,368.963318 825.919800,384.284302
	C831.442871,396.792877 833.387085,410.111298 834.740295,423.571503
	C834.990173,426.056885 833.949402,426.297119 831.925598,426.195007
	C820.759644,425.631531 809.599487,425.759583 798.496826,427.169800
	C796.148804,427.467987 795.676392,426.729797 795.648438,424.589355
	C795.594116,420.427551 795.217651,416.275208 793.993591,412.254333
	C791.278137,403.333771 785.614868,399.027924 777.753296,399.906708
	C769.705811,400.806244 762.707397,408.155670 762.113525,416.315887
	C761.561401,423.904388 764.536011,429.924988 770.268127,434.726257
	C775.693909,439.270996 782.039917,442.225037 788.382263,445.179749
	C795.468262,448.481018 802.596497,451.678284 809.309814,455.738007
	C825.196289,465.345001 832.558777,479.251343 830.026367,497.746582
	C827.660156,515.028870 817.556091,526.534668 801.461731,532.526794
	C788.513428,537.347534 775.023315,538.286133 761.669128,534.430420
	C741.647461,528.649536 730.893311,513.924072 725.168701,494.810150
	C724.169373,491.473419 723.650757,487.992706 722.842590,484.149170
z"/>
<path opacity="1.000000" stroke="none"
	d="
M272.718658,273.806458
	C272.950714,240.984192 272.180969,208.724289 265.261963,176.926361
	C264.357208,172.768585 260.752136,167.801697 262.849487,164.837021
	C264.602356,162.359283 270.522644,162.934189 274.543091,161.937897
	C290.547546,157.971878 306.291138,153.298523 319.840179,144.436020
	C329.805725,203.790283 357.100067,255.615784 388.855225,305.781647
	C370.332886,307.415649 352.756592,314.419250 335.133789,323.463135
	C334.907043,315.021454 335.285522,307.132843 334.161835,299.306793
	C333.024506,291.385468 331.436523,283.575104 329.693146,275.774841
	C329.033661,272.824158 327.731812,272.598816 325.152740,273.307861
	C318.238434,275.208740 311.526398,277.631775 304.848541,280.224487
	C301.900360,281.369141 301.291168,282.986359 301.849243,285.896790
	C304.176208,298.032562 307.538544,309.832367 312.606232,321.125610
	C313.269897,322.604553 315.075317,324.351013 311.461029,324.856354
	C297.640991,326.788574 284.865845,332.010406 272.242920,337.662231
	C271.354065,338.060211 270.419739,338.356659 268.927887,338.918091
	C271.118530,317.115540 272.135376,295.712036 272.718658,273.806458
z"/>
<path opacity="1.000000" stroke="none"
	d="
M769.869934,282.835144
	C794.026428,239.578522 812.491211,194.526657 822.502563,146.209488
	C823.289856,142.409775 822.066650,136.890060 825.139954,135.261780
	C827.697754,133.906647 832.330566,136.531937 836.060852,137.315048
	C852.869812,140.843796 869.761292,143.149658 886.639954,140.374115
	C862.595886,202.900406 862.612610,266.353119 877.773926,330.873993
	C863.421875,324.815491 848.202209,322.258911 832.067749,322.615082
	C833.572937,318.102722 834.961792,314.062683 836.269287,309.996460
	C840.090576,298.112427 841.166077,285.922577 840.533936,273.495789
	C840.356323,270.004303 838.871948,268.463928 835.562622,267.879028
	C826.894958,266.347107 818.281372,268.194458 809.641113,268.091614
	C807.235779,268.062958 807.469971,270.332458 807.114624,271.753174
	C803.626709,285.698883 801.932556,299.896973 801.826233,314.251984
	C801.797729,318.098969 800.952698,318.501434 797.293457,317.468750
	C783.755554,313.648254 769.769104,312.726654 755.793457,311.937225
	C754.207031,311.847656 752.611084,311.925140 749.932190,311.925140
	C757.815308,302.242462 763.987915,292.853546 769.869934,282.835144
z"/>
<path opacity="1.000000" stroke="none"
	d="
M682.747437,261.600281
	C691.595581,218.972412 696.094482,176.363586 694.716614,133.211838
	C694.594482,129.385559 694.458740,125.544800 694.009460,121.748619
	C693.648132,118.695732 694.530518,118.153709 697.507446,118.645309
	C712.937744,121.193398 728.410767,123.450500 743.959778,125.205444
	C760.853149,127.112129 777.795959,128.161026 794.778320,128.363968
	C799.152893,128.416245 799.196289,129.544327 797.806641,133.103500
	C791.912231,148.198975 788.528015,163.980469 785.948120,179.918457
	C785.298645,183.930771 784.680481,185.197311 780.264526,183.462067
	C764.480774,177.260056 747.950684,174.542572 731.024109,173.918060
	C728.129150,173.811249 726.900818,174.695129 726.162292,177.393814
	C723.612610,186.710587 721.549133,196.125656 719.671631,205.597687
	C719.093384,208.515015 720.149048,208.944214 722.561707,209.197876
	C733.519043,210.349838 744.503540,210.567795 755.495422,210.197693
	C758.700928,210.089783 759.946777,210.445007 758.850525,214.169586
	C755.604980,225.196274 753.615906,236.490356 752.820557,248.451080
	C747.786133,246.285965 743.063599,243.941345 738.125732,242.211197
	C732.019714,240.071732 725.711975,238.514893 719.536926,236.562332
	C716.441101,235.583405 715.012939,235.719788 714.656067,239.726349
	C712.716431,261.497681 711.610168,283.235077 714.863647,304.979218
	C714.981750,305.768616 714.878662,306.591064 714.878662,307.692505
	C700.508789,303.459717 686.123291,303.345276 671.097290,305.032501
	C675.654419,290.570160 679.601318,276.407562 682.747437,261.600281
z"/>
<path opacity="1.000000" stroke="none"
	d="
M500.587891,169.529327
	C498.285706,153.101151 495.429108,137.215973 491.775879,121.495117
	C490.918396,117.805237 491.528961,117.033432 495.230896,117.090515
	C516.557373,117.419380 537.868225,116.828606 559.112244,114.850380
	C570.375427,113.801559 581.606262,112.391457 592.838806,111.037552
	C596.159912,110.637245 598.228210,110.092957 597.182434,115.172142
	C594.427002,128.554565 595.517273,142.038635 598.302490,155.323257
	C599.039429,158.838120 598.831482,159.632523 595.079346,158.886276
	C576.381836,155.167694 557.616577,156.597198 538.841553,158.383270
	C535.738159,158.678513 535.511475,160.483643 535.372803,162.705032
	C534.613647,174.869308 536.390259,186.996902 535.914673,199.155350
	C535.817688,201.634079 537.391235,201.222458 538.877747,201.126633
	C544.409546,200.770004 549.630920,199.047852 554.898682,197.513718
	C561.872437,195.482742 568.599121,192.589584 576.366638,191.171494
	C574.928894,204.068542 574.396729,216.646439 575.212219,229.600983
	C563.152954,226.341827 551.337341,228.402069 539.586792,228.166611
	C536.719116,228.109146 535.877747,228.957382 536.062439,231.842041
	C537.425659,253.129395 539.173462,274.365906 545.299561,294.929047
	C546.402954,298.632904 545.666138,299.138245 542.186951,298.663086
	C532.092651,297.284454 522.288513,299.044312 512.624329,301.876831
	C511.076294,302.330536 509.523682,302.768555 507.505402,303.348175
	C509.867096,258.309326 507.075104,214.038940 500.587891,169.529327
z"/>
<path opacity="1.000000" stroke="none"
	d="
M1124.678101,267.756317
	C1123.912720,270.688904 1123.257202,273.236572 1122.478760,276.262085
	C1113.226929,270.007568 1103.839722,264.425507 1093.968994,259.633484
	C1089.954590,257.684570 1088.235962,258.043213 1086.288818,262.279175
	C1070.222168,297.232025 1058.015381,333.344482 1052.619263,371.566132
	C1052.062378,375.511261 1051.805420,379.498749 1051.337036,384.188873
	C1036.448120,376.447510 1020.715027,372.366394 1004.496399,370.703430
	C1003.888306,369.525482 1004.596985,368.924530 1005.040344,368.264740
	C1029.208496,332.301392 1045.730957,292.834595 1058.623657,251.681870
	C1059.668335,248.347351 1058.662720,247.467331 1055.583984,246.825729
	C1044.837036,244.586166 1033.985352,243.099442 1022.608704,242.095078
	C1026.721802,232.906799 1030.536011,224.105911 1033.083374,214.810928
	C1035.634033,205.503662 1037.180786,196.042007 1037.612671,185.783539
	C1052.148193,193.395767 1066.326172,199.893326 1080.942383,205.384567
	C1100.923218,212.891266 1121.321411,218.934570 1142.478760,222.057724
	C1146.440552,222.642548 1146.051147,223.685394 1144.289062,226.500443
	C1136.234497,239.368210 1129.049927,252.680862 1124.678101,267.756317
z"/>
<path opacity="1.000000" stroke="none"
	d="
M391.041016,184.986084
	C388.099609,169.181961 385.312683,153.788818 382.268433,138.446747
	C381.534210,134.746307 381.807465,133.262711 386.239746,133.102509
	C402.128693,132.528183 417.663818,129.885254 432.685333,123.028709
	C432.009186,130.776932 431.250946,138.144562 430.741119,145.529343
	C428.122772,183.458969 431.144470,221.106216 436.543701,258.628021
	C436.638550,259.287018 436.811127,259.934601 436.912506,260.592896
	C438.344757,269.890076 438.313629,269.620972 447.472229,268.611511
	C462.974426,266.902802 477.252136,262.220673 490.009705,251.753189
	C490.012024,261.679321 489.629120,270.781464 490.806458,279.845978
	C491.579926,285.800842 492.313690,291.777222 494.099426,297.489441
	C495.197510,301.001984 494.507233,301.656067 490.986450,301.482849
	C478.829529,300.884644 466.669617,301.060455 454.515564,301.906860
	C435.832520,303.207916 417.544922,306.481720 399.763580,312.435944
	C399.000458,312.691467 398.199249,312.833282 397.049896,313.119049
	C404.697845,269.923615 398.004272,227.664566 391.041016,184.986084
z"/>
<path  opacity="0.000000" stroke="none"
	d="
M666.140869,405.712158
	C675.804504,412.588867 677.617310,421.958771 671.088135,431.411865
	C664.479614,440.979828 654.625549,444.325073 643.546204,445.122742
	C641.068970,445.301086 640.851929,444.058838 641.044983,442.105042
	C642.270996,429.692017 643.494934,417.278290 644.600220,404.854218
	C644.804932,402.553772 645.626953,401.785919 647.970398,401.780090
	C654.212341,401.764618 660.243164,402.481140 666.140869,405.712158
z"/>
<path opacity="0.000000" stroke="none"
	d="
M648.755005,470.061401
	C654.102600,471.082428 658.847839,472.511688 662.935791,475.576294
	C671.530273,482.019257 672.463867,492.521881 664.977478,500.229950
	C659.031250,506.352234 651.457458,508.217499 643.173706,508.096283
	C641.079956,508.065643 640.840515,506.968811 640.669922,505.303680
	C639.533081,494.207062 640.015930,483.078308 639.866516,471.961456
	C639.835205,469.629456 640.845886,469.111420 642.891357,469.419617
	C644.694397,469.691254 646.521118,469.805695 648.755005,470.061401
z"/>
<path opacity="0.000000" stroke="none"
	d="
M306.922668,219.082703
	C312.365082,228.666916 316.777863,238.332733 320.884033,248.155060
	C321.865784,250.503403 321.611481,251.577271 319.041840,252.460190
	C313.523834,254.356125 307.860748,255.602829 302.195740,256.890442
	C299.836060,257.426788 299.005035,256.649139 298.980438,254.147156
	C298.843048,240.155289 299.577148,226.243607 302.219696,211.261490
	C304.079102,214.337555 305.415131,216.547745 306.922668,219.082703
z"/>
<path opacity="0.000000" stroke="none"
	d="
M829.517456,212.466461
	C833.471008,204.206482 837.307068,196.311203 842.013123,188.791718
	C843.764587,189.815445 843.053650,191.295532 843.092102,192.458694
	C843.653625,209.454102 842.310791,226.374771 841.029785,243.298492
	C840.867371,245.443970 840.765442,247.242218 837.765442,246.984039
	C831.471985,246.442459 825.158264,246.140060 818.858093,245.669846
	C816.054565,245.460602 815.281311,244.372955 816.611084,241.496048
	C821.001282,231.998093 825.113037,222.371475 829.517456,212.466461
z"/>
</svg>