<svg version="1.1" xmlns="http://www.w3.org/2000/svg" xmlns:xlink="http://www.w3.org/1999/xlink" width="100%" viewBox="0 0 360 360" xml:space="preserve" fill='olive'>
<path d="
	M167.806915,110.751907
	C169.786179,116.014030 169.509659,121.381050 170.876343,126.554543
	C174.249649,139.324051 183.076813,144.898270 195.258774,147.038391
	C213.363068,150.218948 231.628983,148.159683 249.785019,149.119751
	C265.817993,149.967529 282.011108,149.990952 296.968933,157.850159
	C308.361206,163.835953 315.462830,172.891846 320.013000,184.487686
	C320.800690,186.495132 320.873840,188.849243 322.973450,190.847794
	C323.140717,176.045639 322.271667,161.788742 321.133209,147.508804
	C320.158630,135.284424 318.545532,123.292297 315.086456,111.479279
	C310.272308,95.038719 301.224274,82.149918 286.496735,73.023552
	C270.589294,63.166035 253.218430,60.746700 235.160049,62.131092
	C223.688171,63.010536 212.620941,66.469147 201.601654,69.761505
	C194.551010,71.868111 187.503799,73.986282 179.479263,76.391769
	C183.505142,71.584381 188.308197,69.687103 192.522430,67.119659
	C206.202896,58.785130 220.033600,50.692303 235.473877,45.846680
	C253.483414,40.194744 271.496887,38.502480 289.717468,44.924858
	C311.374573,52.558540 323.738098,68.478149 329.983032,89.852905
	C335.011444,107.063812 334.753174,124.808060 333.770508,142.362213
	C332.897064,157.964462 331.135681,173.579758 328.129303,189.006470
	C326.634491,196.676849 325.369415,204.498169 325.131744,212.285751
	C324.604645,229.554962 330.282837,245.107605 339.822754,259.362244
	C340.932770,261.020844 343.757050,263.365967 342.511871,264.408813
	C340.212860,266.334259 337.872925,263.305420 336.509705,261.792297
	C325.130432,249.161728 317.287628,234.600342 314.044769,217.801453
	C312.755280,211.121506 311.260529,204.507660 309.493317,197.942139
	C306.056671,185.174713 296.670227,178.440460 285.123444,174.078156
	C272.041290,169.135757 258.454346,166.845993 244.443634,166.977554
	C232.778198,167.087082 221.101151,167.292831 209.447647,166.904053
	C200.684937,166.611740 191.917892,165.315445 183.938049,161.375687
	C173.785370,156.363174 168.903122,147.596634 166.925308,136.691711
	C165.427582,128.433762 166.330322,120.178055 166.092392,111.463814
	C166.542404,110.648560 166.986526,110.497063 167.806915,110.751907
z"/>
<path
	d="
M114.720711,291.869293
	C125.308922,295.757690 134.477249,301.621338 144.028656,306.678497
	C162.523132,316.470734 181.109406,325.475952 202.312195,328.143890
	C220.211731,330.396149 235.058609,324.096863 248.690094,313.725586
	C267.650024,299.300232 276.337189,278.766907 282.084869,256.499939
	C283.817352,249.788284 285.873108,243.160370 287.541473,236.151001
	C288.450623,235.595505 289.069153,235.401077 290.233765,235.383636
	C291.475708,249.429184 290.354553,263.366577 289.189056,277.354919
	C288.162506,289.675293 285.099792,301.252716 279.984344,312.360535
	C270.291260,333.408447 254.492188,347.820801 231.492645,351.655182
	C216.265884,354.193726 200.939758,351.382690 186.499008,344.912994
	C165.595016,335.547699 147.336914,322.204437 129.538239,308.083496
	C124.199646,303.847992 118.679321,299.841553 113.096558,295.418579
	C112.479744,293.612854 112.955948,292.512024 114.720711,291.869293
z"/>
<path
	d="
M92.395836,241.148758
	C71.837631,231.493134 52.181149,220.036087 37.073463,202.427368
	C25.953423,189.466446 18.397491,174.788818 18.976486,156.565765
	C18.847422,155.908783 18.737226,155.704437 18.792255,155.193542
	C18.306263,131.916641 29.920464,115.501610 46.807446,101.548790
	C66.977028,84.883736 90.661224,74.937340 114.335670,64.811501
	C118.924156,62.848942 123.517494,60.897793 128.516235,58.979160
	C131.185364,59.804447 131.236969,60.137760 128.791687,64.116638
	C118.460663,69.731071 109.989265,76.255188 101.021729,81.995689
	C87.488792,90.658707 74.434654,99.965675 63.610596,111.957787
	C53.745029,122.887978 47.114201,135.146835 45.810448,150.429657
	C43.909752,172.710007 51.527279,191.364014 64.870308,208.377457
	C72.888847,218.601776 82.933578,226.870026 91.924240,236.584747
	C92.396927,238.130417 92.610588,239.381836 92.395836,241.148758
z"/>
<path
	d="
M46.535198,269.867188
	C57.956577,264.822113 69.687996,265.787750 81.529808,266.729523
	C93.697411,267.697113 104.634018,272.865967 116.031258,276.284668
	C129.568924,280.345428 140.450882,276.818695 150.988144,268.611603
	C164.032288,258.451996 173.236221,245.374741 181.420074,231.260529
	C188.813461,218.509583 195.555542,205.131714 206.087326,194.614853
	C218.662537,182.057465 230.132141,179.821381 246.458008,186.776367
	C250.322235,188.422562 254.158295,190.046890 257.888245,192.567627
	C258.635254,193.796021 258.904053,194.781158 258.514221,196.351074
	C253.980667,195.603714 249.716461,194.055954 245.317230,193.212616
	C236.758194,191.571808 230.026596,195.614761 224.306244,201.292526
	C215.125427,210.404999 208.589478,221.498779 201.899521,232.451569
	C194.064423,245.279190 187.038406,258.681458 177.691940,270.474152
	C169.268036,281.102844 158.833191,289.618683 145.217712,292.797211
	C135.693100,295.020691 126.148254,293.708191 116.405815,290.908020
	C113.356903,289.591187 113.554024,293.524139 111.184166,293.179932
	C102.259590,285.705902 93.505432,278.652344 82.213020,275.586426
	C73.437454,273.203827 64.573196,271.642151 55.513912,270.930542
	C52.796497,270.717072 50.475479,272.276703 47.477001,271.904541
	C46.922314,271.410126 46.730099,270.987122 46.535198,269.867188
z"/>
<path
	d="
M182.223526,12.815146
	C182.496735,22.571434 177.582932,30.357040 173.174088,38.166088
	C166.918839,49.245567 157.458176,57.488731 147.980499,65.866028
	C139.183929,73.641289 131.090515,82.750595 132.069717,95.896065
	C133.200974,111.082916 137.744522,125.231194 145.040405,138.730682
	C153.923477,155.166946 165.969803,169.986374 171.056046,188.393692
	C176.538544,208.235153 172.045685,218.462234 156.802536,229.669037
	C153.803040,231.874268 150.616302,233.824783 147.096863,235.862946
	C146.447083,234.764923 145.798874,233.818771 145.856659,232.292511
	C151.494110,226.291428 157.659012,221.117615 158.286636,212.375793
	C158.746445,205.971024 156.822525,199.998444 154.569656,194.264999
	C149.768600,182.046417 142.584274,171.032516 136.168900,159.631317
	C127.870560,144.883759 118.549324,130.713776 114.790131,113.704605
	C110.852119,95.886337 114.715729,80.654770 127.053558,67.402313
	C127.613899,66.800423 128.090500,66.120567 128.308777,65.194489
	C128.011429,64.911964 127.989517,64.974327 127.966080,64.997627
	C128.269135,64.712051 128.617157,64.429749 129.287689,64.035767
	C132.922791,63.085552 132.203461,60.740486 131.800217,58.173080
	C136.109299,54.444149 141.653275,54.267040 146.257431,51.529613
	C160.847717,42.854885 171.282867,30.669748 178.783905,15.694787
	C179.216766,14.830610 179.601746,13.942442 180.132751,12.737967
	C180.709000,12.444450 181.161469,12.478408 182.223526,12.815146
z"/>
<path
	d="
M115.015381,237.898239
	C111.696991,243.959091 111.696991,243.959091 107.918846,246.297424
	C110.800674,237.419952 110.907051,229.053909 107.411560,220.909134
	C103.676682,212.206604 98.310806,204.494934 92.542404,197.051025
	C84.394249,186.536087 76.047348,176.163116 70.433846,163.949860
	C65.018364,152.167404 64.604523,140.655319 72.116653,129.529312
	C72.653419,128.734344 73.261070,127.815979 74.846970,128.279404
	C71.225471,142.254669 77.719315,153.316437 85.494728,164.009003
	C94.936089,176.992538 106.604355,188.451477 113.501419,203.163773
	C118.683182,214.217072 121.981628,225.732452 115.015381,237.898239
z"/>
<path
	d="
M235.002747,260.969177
	C239.294540,250.371887 244.113113,240.393478 251.545334,232.155701
	C257.410095,225.655273 264.684387,220.906555 274.009003,221.045639
	C278.196259,221.108109 282.503998,220.281082 288.220398,222.172333
	C266.021301,226.928329 258.668671,243.912964 251.010864,260.564026
	C244.524033,274.668945 239.107025,289.428955 228.304184,301.016602
	C223.621765,306.039185 217.526016,309.364349 210.435944,309.944977
	C206.712799,310.249878 202.944153,309.998840 199.092316,309.520813
	C202.702454,306.534790 207.220612,305.658752 210.925232,302.869293
	C218.311783,297.307526 221.995193,289.443939 225.912277,281.691895
	C229.253342,275.079834 231.960846,268.147675 235.002747,260.969177
z"/>
<path
	d="
M274.723511,103.000000
	C259.916290,102.467247 245.868652,104.809479 231.738586,106.825760
	C220.091309,108.487778 208.052368,108.864510 196.885406,104.717033
	C187.075226,101.073471 181.950439,97.709778 176.032104,82.191284
	C179.268906,81.904343 180.493881,84.902306 182.292053,86.219048
	C194.045609,94.825836 207.063034,94.892601 220.639862,93.243477
	C226.792892,92.496101 232.960052,91.820824 239.119934,91.110222
	C246.475754,90.261673 253.897385,89.425873 261.338226,90.019196
	C270.411743,90.742706 279.255585,91.766190 286.903229,97.842194
	C291.647858,101.611778 293.589600,106.556572 295.729218,111.836281
	C289.363861,107.509033 283.027954,103.500572 274.723511,103.000000
z"/>
<path
	d="
M258.532013,197.013092
	C258.211761,195.847672 258.117615,194.862183 258.032715,193.380798
	C263.948914,195.878189 269.362549,199.524017 273.483978,204.984665
	C268.575378,202.387466 263.666748,199.790253 258.532013,197.013092
z"/>
<path
	d="
M145.636551,232.026367
	C146.248779,232.933823 146.544510,233.977066 146.759033,235.426712
	C142.470703,239.445328 137.588272,241.540817 130.924530,242.930374
	C136.005844,238.264587 141.483612,236.280396 145.636551,232.026367
z"/>
<path
	d="
M131.605103,57.938717
	C134.250412,60.760513 135.057816,63.345592 130.243286,64.939659
	C129.528702,64.480843 128.983932,64.494698 128.258667,64.265167
	C127.556374,62.247154 131.047913,61.544937 129.166809,59.148731
	C129.314133,57.725098 130.374008,58.074978 131.605103,57.938717
z"/>
<path
	d="
M110.997833,293.329041
	C112.179718,292.539886 112.646240,291.451599 113.165283,290.249603
	C113.862320,288.635406 114.921867,288.654877 115.933090,290.505157
	C115.702812,291.026703 115.407074,291.220093 115.111176,291.683960
	C114.475632,292.804260 113.840256,293.654083 113.077873,294.805420
	C112.335678,294.608429 111.720490,294.109863 110.997833,293.329041
z"/>
<path
	d="
M99.381371,245.116974
	C97.626465,243.881927 94.981567,244.111816 95.080757,241.441208
	C95.105713,240.769531 95.975784,240.154434 96.488396,240.504700
	C98.306931,241.747192 100.313156,242.901825 100.861076,245.317902
	C100.876816,245.387283 100.594795,245.624435 100.499153,245.599686
	C100.235573,245.531479 99.997253,245.365585 99.381371,245.116974
z"/>
<path
	d="
M290.497528,235.096054
	C290.105499,235.574875 289.483856,235.756622 288.373627,235.948212
	C288.488281,234.120300 286.931488,231.670212 289.712433,230.217651
	C289.907806,231.828827 290.087860,233.313904 290.497528,235.096054
z"/>
<path
	d="
M92.577957,241.733887
	C91.154495,240.514450 90.895058,239.240311 91.859818,237.338562
	C92.893852,238.452286 98.166260,239.331284 92.577957,241.733887
z"/>
<path
	d="
M168.063293,110.571121
	C167.681961,110.970093 167.249084,110.982300 166.491425,110.997482
	C166.171371,109.981651 165.327637,108.504356 166.842392,108.170288
	C168.291367,107.850708 167.875641,109.338959 168.063293,110.571121
z"/>
<path
	d="
M46.165775,269.121216
	C46.652229,269.609070 46.771950,270.047913 47.003098,271.159943
	C46.055126,271.838074 44.634075,272.685059 44.140110,271.176208
	C43.795738,270.124268 44.924847,269.538544 46.165775,269.121216
z"/>
<path
	d="
M182.907257,12.782068
	C182.394638,13.034887 181.956177,12.951844 180.887115,12.639647
	C181.222641,11.897127 180.536926,9.880123 182.131943,10.108006
	C183.468719,10.298992 182.851318,11.596889 182.907257,12.782068
z"/>
<path
	d="
M18.697655,154.980377
	C18.966597,155.091278 18.975710,155.295563 18.971222,155.806488
	C18.528210,155.894760 17.815334,155.818146 18.697655,154.980377
z"/>
<path fill="#FFFFFF" opacity="1.000000" stroke="none"
	d="
M128.006577,64.340042
	C128.632721,64.191093 129.223145,64.267525 129.848389,64.651779
	C129.412064,65.172600 128.940918,65.385597 128.206207,65.309769
	C127.942635,65.020927 127.970871,64.565422 128.006577,64.340042
z"/>
</svg>