<?xml version="1.0" encoding="utf-8"?>
<!-- Generator: Adobe Illustrator 20.1.0, SVG Export Plug-In . SVG Version: 6.00 Build 0)  -->
<svg version="1.1" id="Layer_1" xmlns="http://www.w3.org/2000/svg" xmlns:xlink="http://www.w3.org/1999/xlink" x="0px" y="0px"
	 width="182px" height="105px" viewBox="0 0 182 105" style="enable-background:new 0 0 182 105;" xml:space="preserve" fill='seagreen' >
<g>
	<path class="st0" d="M94.7,52.2l6.6-20.4l6.9,21.2h8.6l11.7-43h-11L112,32.7L105.1,10h-7.4l-6.9,22.7L85.2,10h-11l11.3,41.2
		C88.3,51.5,91.4,51.9,94.7,52.2z" />
	<path class="st0" d="M82.4,79.3C89,80.7,95.7,82,102.4,83c0.2,0,0.4,0,0.7,0c1.5,0,3.1-0.7,3.9-1.6c6.4-7.4,12.7-15,19.1-22.7
		c1-1.2,0.4-2.1-1.3-2.1c-7.2-0.1-14.4-0.3-21.5-0.8c-0.1,0-0.2,0-0.3,0c-1.4,0-3.1,0.7-4,1.6c-5.9,6.7-11.7,13.3-17.6,19.7
		C80.6,78,81,79,82.4,79.3z" />
	<path class="st0" d="M144,89.9l-0.3-0.1L131,87.2c2-2,3.8-4.1,5.4-6.2c3.9-5.2,6.5-10.2,7.7-12.9c0.1-0.3,0.5-1.1,0.6-2.1
		c0.1-0.8-0.1-3-0.6-5.1c-0.5-2-1.5-4.3-2.1-4.8c0,0.4-0.1,0.9-0.3,1.2c-1.6,2.3-4.8,6.8-8.7,12c-4.8,6.4-10.6,13.5-15.9,16.9
		c-1.4,0.8-2.6,1.4-6.2,1.1c-30.2-3.3-57-9.9-77-18.3c0,0-0.6-0.3-0.6-1c0-0.9,0.5-1.4,0.5-1.4s4.4-5.3,12.1-11.5
		c1.1-0.9,2.1-1.7,3.1-2.4c-7.9-3.7-12.3-7.9-12.3-12.3c0-2.3,1.4-7.4,13.8-12.8c0,0,0.1-4.6,0.1-6.8C17.6,27.8,6,40,6,48.5
		C6,70,51.2,91.2,112.5,97.9l0.6,0.1c3.6,0.3,4.8-0.3,6.2-1.1c1.6-1.1,3.4-2.4,5.2-3.9l17.8,2.3c1.1,0.2,2.3-0.6,2.8-1.9
		C145.7,91.9,145.2,90.3,144,89.9z M141.4,91.8c-7.7-1.5-12.3-2.4-18.7-3.2c0.3-0.9,1.3-1.6,2.2-1.7c0,0,13.4,2.7,17.7,3.7
		C141.8,90.8,141.6,91.2,141.4,91.8z" />
	<path class="st0" d="M71.1,51.4c-0.8-0.2-1.7-0.3-2.5-0.5c-0.5-0.1-1.4,0.2-1.8,0.6c-1.5,1.3-2.9,2.7-4.4,4c-0.5,0.4-0.5,0.9,0.1,1
		c0.8,0.2,1.7,0.4,2.5,0.6c0.5,0.1,1.4-0.1,1.9-0.6c1.5-1.4,3-2.8,4.4-4.2C71.7,51.9,71.7,51.4,71.1,51.4z" />
	<path class="st0" d="M59,58.5c-1.5,1.3-3,2.7-4.5,4c-0.5,0.4-0.5,0.9,0.1,1.1c0.8,0.3,1.7,0.5,2.5,0.7c0.5,0.2,1.4-0.1,1.9-0.5
		c1.5-1.4,3-2.7,4.5-4.1c0.5-0.5,0.5-0.9-0.1-1.1c-0.9-0.2-1.7-0.4-2.5-0.6C60.3,57.8,59.5,58,59,58.5z" />
	<path class="st0" d="M51,65.4c-1.6,1.3-3.1,2.6-4.7,3.9c-0.5,0.4-0.5,0.9,0,1.1c0.8,0.3,1.7,0.6,2.5,0.8c0.5,0.2,1.4,0,1.9-0.5
		c1.6-1.3,3.1-2.7,4.7-4.1c0.5-0.5,0.5-0.9-0.1-1.1c-0.8-0.2-1.7-0.5-2.5-0.7C52.3,64.7,51.5,65,51,65.4z" />
	<path class="st0" d="M77.7,52.5c-0.9-0.1-1.7-0.3-2.6-0.4c-0.5-0.1-1.4,0.2-1.9,0.7c-1.5,1.4-2.9,2.8-4.4,4.2
		c-0.5,0.5-0.5,0.9,0.1,1c0.9,0.2,1.7,0.4,2.6,0.5c0.6,0.1,1.4-0.2,1.9-0.7c1.5-1.4,3-2.9,4.4-4.3C78.3,53,78.2,52.6,77.7,52.5z" />
	<path class="st0" d="M69.9,60c-0.9-0.2-1.7-0.4-2.6-0.5c-0.6-0.1-1.4,0.2-1.9,0.6c-1.5,1.4-3,2.8-4.6,4.2c-0.5,0.5-0.5,1,0.1,1.1
		c0.9,0.2,1.7,0.5,2.6,0.7c0.6,0.1,1.4-0.1,1.9-0.6c1.5-1.4,3-2.9,4.5-4.3C70.5,60.6,70.5,60.1,69.9,60z" />
	<path class="st0" d="M52.8,72.6c0.9,0.3,1.7,0.5,2.6,0.8c0.6,0.2,1.4-0.1,2-0.5c1.6-1.4,3.1-2.8,4.7-4.3c0.5-0.5,0.5-1-0.1-1.1
		c-0.9-0.2-1.7-0.5-2.6-0.7c-0.5-0.1-1.4,0.1-1.9,0.6c-1.5,1.4-3.1,2.8-4.7,4.1C52.2,71.9,52.3,72.4,52.8,72.6z" />
	<path class="st0" d="M84.3,53.4c-0.9-0.1-1.8-0.2-2.6-0.3c-0.6-0.1-1.4,0.3-1.9,0.8c-1.5,1.5-2.9,2.9-4.4,4.4
		c-0.5,0.5-0.4,1,0.1,1.1c0.9,0.2,1.8,0.3,2.6,0.4c0.6,0.1,1.4-0.2,1.9-0.7c1.5-1.5,2.9-3,4.4-4.5C84.9,53.9,84.9,53.4,84.3,53.4z"
		/>
	<path class="st0" d="M67.6,67c0.9,0.2,1.8,0.4,2.7,0.6c0.6,0.1,1.4-0.2,1.9-0.7c1.5-1.5,3-3,4.5-4.5c0.5-0.5,0.4-1-0.1-1.1
		c-0.9-0.2-1.8-0.3-2.6-0.5c-0.6-0.1-1.4,0.2-1.9,0.7c-1.5,1.5-3,2.9-4.5,4.4C67,66.3,67,66.8,67.6,67z" />
	<path class="st0" d="M59.4,74.6c0.9,0.2,1.8,0.5,2.6,0.7c0.6,0.2,1.4-0.1,2-0.6c1.6-1.5,3.1-3,4.7-4.5c0.5-0.5,0.5-1-0.1-1.1
		c-0.9-0.2-1.8-0.4-2.7-0.6c-0.6-0.1-1.4,0.1-1.9,0.6c-1.6,1.5-3.1,2.9-4.7,4.3C58.9,73.9,58.9,74.4,59.4,74.6z" />
	<path class="st0" d="M82.3,60.3c0.9,0.1,1.8,0.2,2.7,0.4c0.6,0.1,1.4-0.3,1.9-0.8c1.5-1.6,2.9-3.2,4.4-4.8c0.5-0.5,0.4-1-0.2-1
		c-0.9-0.1-1.8-0.1-2.7-0.2c-0.6-0.1-1.4,0.3-1.9,0.8c-1.5,1.5-2.9,3.1-4.4,4.6C81.6,59.8,81.7,60.2,82.3,60.3z" />
	<path class="st0" d="M79,68.1c1.5-1.6,3-3.1,4.5-4.7c0.5-0.5,0.4-1-0.1-1.1c-0.9-0.1-1.8-0.3-2.7-0.4c-0.6-0.1-1.4,0.3-1.9,0.8
		c-1.5,1.5-3,3.1-4.5,4.6c-0.5,0.5-0.5,1,0.1,1.1c0.9,0.2,1.8,0.3,2.7,0.5C77.7,69,78.5,68.7,79,68.1z" />
	<path class="st0" d="M66.2,76.4c0.9,0.2,1.8,0.4,2.7,0.7c0.6,0.1,1.5-0.2,2-0.7c1.6-1.6,3.1-3.1,4.7-4.7c0.5-0.5,0.5-1-0.1-1.1
		c-0.9-0.2-1.8-0.3-2.7-0.5c-0.6-0.1-1.4,0.2-2,0.7c-1.6,1.5-3.1,3-4.7,4.5C65.6,75.7,65.7,76.2,66.2,76.4z" />
	<path class="st0" d="M53,49.9c3-2.1,4.4-2.8,4.4-2.8s0.5-0.3,1.2-0.5c0.7-0.1,1.3,0,1.3,0c1.2,0.3,2.3,0.5,3.6,0.8V19.4h10.4
		L71.3,10H40v9.4h13V49.9z" />
	<path class="st0" d="M146.4,10h-8.1l-15.5,43h11l2.1-6.4H149l2,6.4h11L146.4,10z M138.8,37.8l3.8-11.5l3.6,11.5H138.8z" />
</g>
</svg>
